<svg width="175" height="175" viewBox="0 0 175 175" fill="none" xmlns="http://www.w3.org/2000/svg">
<path d="M1 1.02008C1 1.02008 44.1581 1.02008 87.3161 1.02008C89.4742 1.02008 91.6322 1.02008 93.7841 1.0194C102.485 0.993422 110.834 0.993421 119.01 1.02008C121.033 1.02008 123.029 1.02008 124.993 1.02008C152.485 1.02008 173.632 1.02008 173.632 1.02008" stroke="#171717" stroke-miterlimit="10"/>
<path d="M1 10.107C1 10.107 35.9579 10.107 74.4116 10.107C76.5478 10.1077 78.6949 10.1083 80.8468 10.107C97.1719 9.34343 113.111 9.34343 130.067 10.0981C131.735 10.107 133.372 10.107 134.976 10.107C157.441 10.107 173.632 10.107 173.632 10.107" stroke="#171717" stroke-miterlimit="10"/>
<path d="M1 19.1934C1 19.1934 32.1819 19.1934 68.0407 19.1934C70.1502 19.201 72.2762 19.2078 74.426 19.2297C94.8949 19.2112 116.147 17.693 136.335 19.1722C138.156 19.1921 139.926 19.1934 141.647 19.1934C160.577 19.1934 173.633 19.1934 173.633 19.1934" stroke="#171717" stroke-miterlimit="10"/>
<path d="M1 28.2782C1 28.2782 25.2764 28.2782 55.6223 28.2782C57.6456 28.2782 59.695 28.2782 61.7669 28.2782C63.8949 28.2816 66.0146 28.337 68.1262 28.432C92.6179 28.3178 117.665 27.5591 141.608 28.244C144.789 28.2802 147.787 28.2789 150.589 28.2775C164.566 28.2775 173.632 28.2775 173.632 28.2775" stroke="#171717" stroke-miterlimit="10"/>
<path d="M1 37.363C1 37.363 25.2764 37.363 55.6223 37.363C57.6457 37.363 59.695 37.363 61.7669 37.363C63.521 37.1552 65.2565 37.0739 66.9791 37.0951C78.9567 37.4252 89.5822 39.7022 101.727 41.2204C116.907 43.4974 131.328 38.9434 146.656 37.3664C149.896 37.3637 152.917 37.3637 155.679 37.3637C166.727 37.3637 173.633 37.3637 173.633 37.3637" stroke="#171717" stroke-miterlimit="10"/>
<path d="M1 46.4502C1 46.4502 25.2764 46.4502 55.6223 46.4502C57.6457 46.4502 59.695 46.4502 61.7669 46.4502C63.521 46.3155 65.2566 46.3005 66.9785 46.3832C68.6997 46.4659 70.4032 46.6347 72.0731 46.8125C89.5822 47.2937 104.762 57.1604 121.461 57.9192C130.569 57.9192 137.399 50.3288 145.842 47.2424C147.371 46.7031 148.939 46.321 150.575 46.1658C152.203 46.012 153.898 46.0845 155.68 46.4502C158.442 46.4502 160.945 46.4502 163.146 46.4502C169.75 46.4502 173.634 46.4502 173.634 46.4502" stroke="#171717" stroke-miterlimit="10"/>
<path d="M1 55.536C1 55.536 25.2764 55.536 55.6223 55.536C57.6457 55.536 59.695 55.536 61.7669 55.536C64.2524 55.4273 66.6818 55.4841 69.0757 55.6721C71.4696 55.86 73.819 56.154 76.1028 56.4431C87.3052 57.1602 97.1719 61.7142 107.039 66.2681C122.978 73.0991 136.641 63.9911 150.004 56.763C152.038 56.0104 154.126 55.4595 156.305 55.2182C158.484 54.9776 160.752 55.0473 163.146 55.5354C166.447 55.5354 169.069 55.5354 170.865 55.5354C172.662 55.5354 173.633 55.5354 173.633 55.5354" stroke="#171717" stroke-miterlimit="10"/>
<path d="M1 64.6222C1 64.6222 28.6211 64.6222 61.7669 64.6222C63.8381 64.6222 65.9319 64.6229 68.0407 64.627C70.5317 65.1431 73.0096 65.6216 75.4773 66.0612C96.4124 68.5459 117.665 78.4126 138.76 72.6159C141.085 71.9775 143.401 71.1497 145.706 70.1018C148.01 69.0538 150.302 67.7865 152.579 66.2683C156.374 63.9913 159.41 64.7501 163.157 64.6339C166.446 64.6222 169.068 64.6222 170.864 64.6222C172.661 64.6222 173.632 64.6222 173.632 64.6222" stroke="#171717" stroke-miterlimit="10"/>
<path d="M1 73.707C1 73.707 35.9579 73.707 74.4116 73.707C76.5478 73.7077 78.7045 73.7166 80.9657 73.841C97.1712 79.1708 113.87 80.689 130.393 79.6234C133.128 79.3855 135.863 79.0724 138.596 78.6937C146.797 77.5562 154.988 75.8234 163.178 73.7385C166.446 73.707 169.068 73.707 170.864 73.707C172.661 73.707 173.632 73.707 173.632 73.707" stroke="#171717" stroke-miterlimit="10"/>
<path d="M1 82.7909C1 82.7909 39.95 82.7909 80.8482 82.7909C83.0007 82.7909 85.1622 82.7943 87.3647 82.8367C103.244 85.2408 118.424 89.0353 135.122 86.7584C144.99 85.2401 153.338 82.2044 163.16 82.8039C165.347 82.7909 167.245 82.7909 168.799 82.7909C171.906 82.7909 173.632 82.7909 173.632 82.7909" stroke="#171717" stroke-miterlimit="10"/>
<path d="M1 91.8789C1 91.8789 8.49265 91.8789 20.3561 91.8789C22.7287 91.8789 25.2744 91.8789 27.9547 91.8823C29.7504 91.9144 31.5632 91.9411 33.3863 91.9623C35.2094 91.9835 37.0434 91.9992 38.8802 92.0067C47.8364 92.0744 56.9443 92.0744 65.9039 91.8816C67.6641 91.881 69.4332 91.8803 71.2166 91.8796C76.5273 91.8796 81.9221 91.8796 87.3168 91.8796C89.4749 91.8796 91.6329 91.8796 93.7985 91.8878C115.388 94.3514 136.641 93.5926 157.757 91.9302C160.992 91.8823 163.855 91.8796 166.215 91.8796C170.936 91.8796 173.633 91.8796 173.633 91.8796" stroke="#171717" stroke-miterlimit="10"/>
<path d="M1 100.965C1 100.965 2.72602 100.965 5.83354 100.965C7.38731 100.965 9.28628 100.965 11.4874 100.965C14.1335 100.992 16.7693 101.004 19.397 101.005C42.523 99.664 64.534 101.182 87.3161 100.965C90.0135 100.965 92.7109 100.965 95.398 100.965C98.0851 100.965 100.761 100.965 103.429 100.972C119.184 101.182 135.881 101.182 151.869 100.986C155.162 100.966 158.181 100.965 160.845 100.965C168.838 100.965 173.633 100.965 173.633 100.965" stroke="#171717" stroke-miterlimit="10"/>
<path d="M1 110.051C1 110.051 3.69738 110.051 8.36892 110.059C10.7218 110.006 13.0671 109.936 15.3954 109.814C41.7642 104.977 67.5704 108.773 93.7841 110.052C95.9367 110.052 98.0838 110.052 100.22 110.052C104.065 110.052 107.876 110.052 111.62 110.052C113.492 110.052 115.347 110.052 117.183 110.052C125.254 110.291 134.362 110.291 142.673 110.052C145.736 110.052 148.637 110.052 151.346 110.052C164.893 110.052 173.632 110.052 173.632 110.052" stroke="#171717" stroke-miterlimit="10"/>
<path d="M1 119.138C1 119.138 2.72602 119.138 5.79116 119.144C8.47761 118.942 11.16 118.695 13.8068 118.304C39.4879 109.532 66.8124 112.568 93.6768 119.099C95.9298 119.132 98.0844 119.137 100.221 119.138C138.674 119.138 173.632 119.138 173.632 119.138" stroke="#171717" stroke-miterlimit="10"/>
<path d="M1 128.223C1 128.223 2.72603 128.223 5.77818 128.232C8.1078 128.531 10.3609 128.513 12.5367 128.177C21.2714 126.229 28.1023 120.157 37.2109 117.88C56.945 113.326 73.6433 123.952 92.6883 126.675C95.303 127.124 97.7905 127.641 100.221 128.219C102.357 128.22 104.483 128.221 106.592 128.222C142.451 128.222 173.633 128.222 173.633 128.222" stroke="#171717" stroke-miterlimit="10"/>
<path d="M1 137.307C1 137.307 2.72603 137.307 5.81715 137.31C7.40372 137.386 9.02036 137.49 10.6199 137.529C21.2714 139.131 25.8253 127.746 34.9332 124.71C42.523 121.674 50.8721 123.192 58.4625 125.469C69.8474 129.264 80.4736 133.818 92.7403 135.407C95.3249 135.963 97.7768 136.571 100.206 137.214C102.357 137.301 104.483 137.303 106.592 137.307C142.451 137.307 173.633 137.307 173.633 137.307" stroke="#171717" stroke-miterlimit="10"/>
<path d="M1 146.395C1 146.395 2.72602 146.395 5.83354 146.395C7.38731 146.395 9.28628 146.395 11.4676 146.391C15.9586 145.205 22.0301 147.482 25.0666 143.687C44.0419 121.676 70.6069 141.41 92.9351 144.153C95.3597 144.786 97.7809 145.498 100.21 146.29C102.357 146.384 104.482 146.388 106.592 146.395C142.45 146.395 173.632 146.395 173.632 146.395" stroke="#171717" stroke-miterlimit="10"/>
<path d="M1 155.482C1 155.482 4.88407 155.482 11.4874 155.482C13.6885 155.482 16.1917 155.482 18.9499 155.452C21.2714 155.073 23.5483 155.832 25.0666 155.073C44.0419 139.893 65.2941 149.001 85.5559 152.371C88.0728 152.834 90.5091 153.317 92.9522 153.842C95.3686 154.335 97.7905 154.868 100.221 155.436C102.357 155.473 104.483 155.477 106.592 155.482C142.45 155.482 173.632 155.482 173.632 155.482" stroke="#171717" stroke-miterlimit="10"/>
<path d="M1 164.568C1 164.568 7.90546 164.568 18.9541 164.568C21.7164 164.568 24.7371 164.568 27.9738 164.563C30.3615 163.946 32.7595 163.429 35.1568 162.975C47.0776 161.146 59.2213 160.387 71.3308 161.74C73.7725 161.896 76.1876 162.08 78.5931 162.28C80.9794 162.482 83.3555 162.7 85.7193 162.922C88.1255 163.127 90.5351 163.367 92.9515 163.64C95.3679 163.913 97.7898 164.221 100.22 164.563C102.356 164.566 104.482 164.567 106.591 164.568C142.45 164.568 173.632 164.568 173.632 164.568" stroke="#171717" stroke-miterlimit="10"/>
<path d="M1 173.652C1 173.652 14.0556 173.652 32.9857 173.652C34.7063 173.647 36.4761 173.645 38.2889 173.633C42.9529 173.547 47.5896 173.482 52.2106 173.437C56.8315 173.392 61.4415 173.374 66.0495 173.375C70.6568 173.376 75.2627 173.398 79.8809 173.443C84.4991 173.489 89.1296 173.556 93.7855 173.645C95.938 173.648 98.0851 173.649 100.221 173.652C138.675 173.652 173.633 173.652 173.633 173.652" stroke="#171717" stroke-miterlimit="10"/>
<path d="M1 173.65V1.01758" stroke="#171717" stroke-miterlimit="10"/>
<path d="M10.0855 173.651C10.0855 173.651 10.0855 166.745 10.0855 155.696C10.0855 152.934 10.0855 149.913 10.0787 146.677C10.0144 142.138 9.97138 137.677 9.94882 133.244C9.92626 128.81 9.92627 124.411 9.94678 119.992C9.9666 115.57 10.0069 111.127 10.0677 106.613C10.0842 104.5 10.0855 102.375 10.0855 100.238C10.0855 53.2391 10.0855 1.01758 10.0855 1.01758" stroke="#171717" stroke-miterlimit="10"/>
<path d="M19.1723 173.65C19.1723 173.65 19.1723 169.766 19.1723 163.162C19.1723 160.961 19.1723 158.458 19.1689 155.679C18.2358 139.889 18.2358 124.709 18.501 109.028C18.7143 104.001 18.9378 98.8724 19.1723 93.8017C19.1723 91.6491 19.1723 89.4911 19.1723 87.3337C19.1723 44.1756 19.1723 1.01758 19.1723 1.01758" stroke="#171717" stroke-miterlimit="10"/>
<path d="M28.2584 173.65C28.2584 173.65 28.2584 172.678 28.2584 170.882C28.2584 169.086 28.2584 166.463 28.2516 163.135C24.3081 142.166 23.5493 119.395 27.3254 98.3167C27.6207 95.9371 27.9214 93.4913 28.2386 91.0346C28.2584 89.1835 28.2584 87.333 28.2584 85.484C28.2584 42.9514 28.2584 1.01758 28.2584 1.01758" stroke="#171717" stroke-miterlimit="10"/>
<path d="M37.3445 173.648C36.9542 171.214 36.5749 168.793 36.2126 166.384C31.8985 142.925 28.1033 118.637 35.572 95.458C36.1155 93.1817 36.6856 90.8076 37.3275 88.4158C37.3445 86.4348 37.3445 84.4565 37.3445 82.481C37.3445 40.9998 37.3445 1.01758 37.3445 1.01758" stroke="#171717" stroke-miterlimit="10"/>
<path d="M46.4296 173.463C46.5103 171.353 46.4276 169.282 46.204 167.241C44.0412 151.274 32.6563 136.853 34.9333 119.396C36.4515 108.011 47.0776 100.421 46.4242 88.1437C46.4289 86.255 46.4289 84.3663 46.4289 82.481C46.4289 40.9998 46.4289 1.01758 46.4289 1.01758" stroke="#171717" stroke-miterlimit="10"/>
<path d="M55.4942 173.035C55.4832 170.421 55.2235 167.863 54.719 165.317C46.32 142.925 33.4168 119.396 53.1509 97.385C55.4279 95.8668 56.1866 92.0722 55.5167 88.1431C55.5167 86.255 55.5167 84.3663 55.5167 82.481C55.5167 40.9998 55.5167 1.01758 55.5167 1.01758" stroke="#171717" stroke-miterlimit="10"/>
<path d="M64.5682 172.821C64.0337 170.135 63.4943 167.461 62.8798 164.805C53.9093 141.407 47.0783 115.601 64.4308 93.8133C64.5689 91.6518 64.6024 89.4917 64.6024 87.3337C64.6024 78.3427 64.6024 69.351 64.6024 60.7502C64.6024 59.0304 64.6024 57.3255 64.6024 55.6399C64.5354 46.5319 64.5354 37.4233 64.6024 27.9914C64.6024 25.294 64.6024 22.7463 64.6024 20.3736C64.6024 8.51022 64.6024 1.01758 64.6024 1.01758" stroke="#171717" stroke-miterlimit="10"/>
<path d="M73.6716 173.053C73.3654 170.648 73.0742 168.239 72.8035 165.829C72.4145 163.427 72.0461 161.022 71.584 158.623C62.2587 136.852 66.8126 114.841 73.6121 93.8065C73.688 90.9765 73.688 88.1417 73.688 85.3103C73.688 82.479 73.688 79.6503 73.688 76.8368C73.688 74.961 73.688 73.0921 73.688 71.2335C73.7776 68.9046 73.8439 66.5702 73.891 64.2324C73.9389 61.8939 73.9669 59.5492 73.9744 57.1813C73.6436 42.736 73.6436 29.0741 73.688 15.0274C73.688 12.8468 73.688 10.8802 73.688 9.15825C73.688 3.99112 73.688 1.01758 73.688 1.01758" stroke="#171717" stroke-miterlimit="10"/>
<path d="M82.7732 173.463C82.6952 171.016 82.6323 168.572 82.5824 166.128C82.5202 163.669 82.4703 161.212 82.4191 158.74C77.4372 139.89 80.4736 120.155 82.7171 100.242C82.7704 98.1027 82.7732 95.9549 82.7732 93.8023C82.7732 91.9191 82.7732 90.0311 82.7732 88.1431C82.7732 86.255 82.7732 84.367 82.7732 82.4824C83.0227 80.7919 83.2298 79.1295 83.4061 77.4868C83.5805 75.8442 83.722 74.2207 83.8368 72.5966C85.787 49.5677 82.7513 27.5566 82.7738 4.75125C82.7738 2.33892 82.7738 1.01758 82.7738 1.01758" stroke="#171717" stroke-miterlimit="10"/>
<path d="M91.8592 173.648C91.8592 168.433 91.8592 163.29 91.8592 158.192C91.8592 155.642 91.8592 153.105 91.8592 150.575C91.8592 148.045 91.8414 145.525 91.7805 143.012C91.0997 130.781 91.8592 118.637 91.8592 106.609C91.8592 104.876 91.8592 103.132 91.8592 101.381C91.8592 99.6298 91.8592 97.8703 91.8592 96.106C91.8592 94.3417 91.8592 92.5726 91.8612 90.8022C92.81 88.4944 93.592 86.1662 94.2236 83.8236C98.6901 56.3986 91.0997 28.3154 91.8592 1.01758" stroke="#171717" stroke-miterlimit="10"/>
<path d="M100.945 173.65C100.945 173.65 100.945 169.766 100.945 163.163C100.945 160.962 100.945 158.458 100.945 155.693C100.967 147.479 100.967 139.13 100.945 130.798C100.945 128.905 100.945 126.974 100.945 125.011C100.945 119.027 100.945 112.744 100.945 106.312C100.945 104.168 100.945 102.008 100.948 99.8379C100.958 96.3339 101.152 92.8744 101.913 89.7217C102.675 86.5684 104.003 83.722 106.265 81.4348C109.316 77.6505 111.593 73.0965 111.593 67.7831C110.075 45.0126 97.9316 24.5198 100.944 1.01172" stroke="#171717" stroke-miterlimit="10"/>
<path d="M110.031 173.651C110.031 173.651 110.031 145.509 110.031 111.951C110.031 110.184 110.031 108.403 110.032 106.611C108.915 100.86 110.443 95.7077 112.726 90.8543C113.487 89.2363 114.332 87.6518 115.189 86.0898C120.701 78.4112 122.978 69.3033 121.46 59.4359C116.906 38.9431 107.038 21.4853 110.029 1.01367" stroke="#171717" stroke-miterlimit="10"/>
<path d="M119.118 173.649C119.118 173.649 119.118 148.392 119.118 117.2C119.118 115.467 119.118 113.716 119.118 111.949C117.644 101.733 122.213 93.2678 126.097 84.4866C127.068 82.291 127.992 80.0769 128.759 77.8095C130.569 73.0962 131.328 67.7835 130.569 63.2295C124.497 41.9773 116.147 23.0027 119.118 1.01758" stroke="#171717" stroke-miterlimit="10"/>
<path d="M128.203 173.649C128.203 173.649 128.203 148.392 128.203 117.2C128.203 115.467 128.203 113.716 128.204 111.949C127.012 101.076 131.557 91.3579 134.423 80.9539C134.997 78.8731 135.503 76.765 135.882 74.6145C136.641 53.3622 126.015 32.8693 128.19 11.4592C128.203 8.19988 128.203 5.5818 128.203 3.78537C128.203 1.98894 128.203 1.01758 128.203 1.01758" stroke="#171717" stroke-miterlimit="10"/>
<path d="M137.288 173.649C137.288 173.649 137.288 148.392 137.288 117.2C137.288 115.365 137.288 113.51 137.288 111.637C138.862 97.6796 140.408 83.87 140.788 70.0003C140.851 67.2291 140.87 64.4538 140.819 61.6655C140.435 47.29 137.399 33.6281 137.28 18.9662C137.286 16.21 137.287 13.7061 137.288 11.505C137.288 4.90164 137.288 1.01758 137.288 1.01758" stroke="#171717" stroke-miterlimit="10"/>
<path d="M146.375 173.65C146.375 173.65 146.375 145.508 146.375 111.95C146.375 109.976 146.375 107.983 146.382 105.982C147.533 89.8691 147.878 74.2501 147.415 58.5614C147.348 56.32 147.265 54.0779 147.164 51.8323C146.508 45.7725 146.508 38.9415 146.374 33.0033C146.375 29.848 146.375 26.8566 146.375 24.0608C146.375 10.0838 146.375 1.01758 146.375 1.01758" stroke="#171717" stroke-miterlimit="10"/>
<path d="M155.462 173.65C155.462 173.65 155.462 140.607 155.462 103.434C155.462 101.575 155.464 99.7084 155.478 97.845C155.616 82.2042 156.375 65.5065 155.477 49.6757C155.462 47.9394 155.461 46.2448 155.461 44.5803C155.461 19.6046 155.461 1.01758 155.461 1.01758" stroke="#171717" stroke-miterlimit="10"/>
<path d="M164.546 173.649C164.546 173.649 164.546 134.699 164.546 93.8017C164.546 91.6491 164.546 89.4911 164.546 87.3337C164.723 79.1684 164.723 70.0605 164.547 61.7845C164.546 59.7126 164.546 57.6625 164.546 55.6398C164.546 25.294 164.546 1.01758 164.546 1.01758" stroke="#171717" stroke-miterlimit="10"/>
<path d="M173.633 173.65V1.01758" stroke="#171717" stroke-miterlimit="10"/>
<path d="M110 83C118.837 83 126 75.8366 126 67C126 58.1634 118.837 51 110 51C101.163 51 94 58.1634 94 67C94 75.8366 101.163 83 110 83Z" fill="black"/>
<path d="M48.5 132C53.7467 132 58 127.747 58 122.5C58 117.253 53.7467 113 48.5 113C43.2533 113 39 117.253 39 122.5C39 127.747 43.2533 132 48.5 132Z" fill="black"/>
<rect x="19" y="28" width="46" height="10" rx="5" fill="black"/>
<rect x="101" y="146" width="46" height="10" rx="5" fill="black"/>
</svg>
