<svg width="547" height="323" viewBox="0 0 547 323" fill="none" xmlns="http://www.w3.org/2000/svg">
<path d="M546 289.152C546 289.152 517.361 253.432 391.972 298.47C361.634 309.367 306.651 305.895 318.774 272.271C330.898 238.646 353.971 159.672 331.672 127.726C305.221 89.8308 318.429 73.3755 320.057 54.5964C321.685 35.8164 305.407 -1.33421 271.631 1.11543C237.856 3.56506 236.116 41.6929 236.116 41.6929L229.343 45.373C229.343 45.373 228.497 62.0758 238.655 63.7749C248.814 65.4731 252.482 52.7339 257.279 52.1676C262.076 51.6012 263.069 65.3345 273.646 65.1903C286.699 65.0125 289.348 49.955 289.348 49.955C289.348 49.955 300.454 49.3366 302.147 49.3366C303.84 49.3366 310.03 47.4309 309.735 55.9734C309.372 66.476 301.301 71.4186 297.067 77.6468C292.835 83.875 305.533 118.413 315.692 117.847C325.851 117.281 302.146 90.6695 291.988 96.0478C281.83 101.426 259.891 127.102 259.891 127.102C259.891 127.102 256.821 115.329 252.988 111.807C247.043 106.345 240.581 104.314 236.313 104.671C233.051 104.944 229.981 106.812 232.282 108.029C234.964 109.447 241.347 103.987 248.397 102.219C255.447 100.45 260.735 98.9349 257.965 96.4091C255.75 94.3889 246.29 93.6615 234.349 99.9089C231.941 101.169 229.432 102.713 226.86 104.586C226.237 105.041 225.624 105.534 224.98 106.008C206.518 119.587 195.951 133.048 192.954 144.104C189.261 157.732 195.715 162.315 202.169 165.553C210.506 169.735 223.066 161.758 205.291 157.765C187.516 153.773 183.802 157.499 181.414 162.024C179.026 166.548 160.702 206.07 161.004 226.727C161.302 247.145 171.21 258.196 182.475 255.98C193.403 253.829 208.21 243.736 208.475 225.104C208.74 206.473 202.373 165.75 209.801 153.773C217.229 141.795 236.516 137.582 239.31 130.645C242.105 123.709 236.074 119.135 228.866 122.529C221.658 125.923 215.039 138.32 221.658 136.106C228.278 133.893 238.575 124.891 244.606 129.613C250.636 134.335 243.429 116.479 238.28 115.741C233.132 115.003 251.372 131.974 253.431 130.203C255.49 128.432 248.283 114.708 242.252 112.494C236.221 110.281 254.902 124.448 255.343 124.005C255.785 123.562 249.969 111.802 265.785 106.82C281.601 101.839 288.589 89.2925 286.934 88.739C285.279 88.1855 266.712 110.245 247.218 95.3005C247.218 95.3005 243.679 91.8199 241.64 79.9586C240.624 74.0492 238.964 67.1946 238.222 68.1863C237.22 69.5265 239.402 72.665 232.824 86.7091C226.246 100.754 215.415 94.2791 215.415 94.2791C215.415 94.2791 218.064 103.47 227.527 104.244" stroke="#1D1E20" stroke-width="1.5" stroke-miterlimit="10" stroke-linecap="round" stroke-linejoin="round"/>
<path d="M1 322C1 322 57.5191 262.48 142.532 291.537C170.456 301.081 207.74 295.935 218.683 281.179C224.11 273.86 218.929 263.436 209.84 263.204C208.076 263.159 206.587 263.129 205.728 263.129C202.184 263.129 212.257 271.177 210.391 272.674C208.526 274.172 199.386 267.059 199.386 267.059C199.386 267.059 201.811 272.3 196.028 269.867C190.245 267.433 182.597 258.637 193.789 246.659C204.982 234.68 223.636 237.675 230.725 238.798C235.845 239.609 257.801 241.404 273.366 240.117C279.35 239.622 277.717 233.969 280.491 232.331C290.48 226.436 315.226 253.307 306.118 255.959C297.011 258.612 285.545 216.034 288.456 186.813C292.322 148.019 309.663 123.814 326.488 129.947C350.204 138.592 362.145 260.053 312.416 281.35C262.686 302.647 201.86 260.163 201.86 260.163C201.86 260.163 200.411 244.246 217.021 237.614" stroke="#1D1E20" stroke-width="1.5" stroke-miterlimit="10" stroke-linecap="round" stroke-linejoin="round"/>
<path d="M240 128.827L245.475 146.45L259.315 131.188L266.156 148C266.156 148 277.534 134.607 288.933 123.044C299.513 112.311 305 109 305 109" stroke="#1D1E20" stroke-width="1.5" stroke-miterlimit="10" stroke-linecap="round" stroke-linejoin="round"/>
<path d="M229 45.5263C229 45.5263 237.892 40.9681 249.623 45.5644C251.358 46.2444 257.029 48.9008 257.114 48.9962C257.224 49.1209 262.089 46.1698 267.486 45.0346C285.161 41.3177 297.378 48.1541 300 42.3527C300 42.3527 278.831 44.6112 264.961 17C264.961 17 242.93 20.6097 235.93 41.753" stroke="#1D1E20" stroke-width="1.5" stroke-miterlimit="10" stroke-linecap="round" stroke-linejoin="round"/>
<path d="M302.237 49.1846C302.237 49.1846 308.51 50.7532 303.644 58.6593C298.106 67.6604 296.014 47.7034 306 49.0672" stroke="#1D1E20" stroke-width="1.5" stroke-miterlimit="10" stroke-linecap="round" stroke-linejoin="round"/>
<path d="M232.5 60.5C230.5 59.7 229.333 50.5 229 46L233.5 44H246L257.5 49L269 45L279.5 44L296.5 45L300 43L308 50H289.5L284 61.5L274 65.5L266 62.5L260 53.5L257 52L254.5 53.5L249 60.5C246.833 61.6667 241.9 64.1 239.5 64.5C236.5 65 235 61.5 232.5 60.5Z" fill="#1D1E20"/>
</svg>
