<svg width="174" height="173" viewBox="0 0 174 173" fill="none" xmlns="http://www.w3.org/2000/svg">
<path d="M86.8252 57.5021V0.615234" stroke="black" stroke-miterlimit="10"/>
<path d="M90.2871 57.707L96.9997 1.2168" stroke="black" stroke-miterlimit="10"/>
<path d="M93.6992 58.3212L107.03 3.01758" stroke="black" stroke-miterlimit="10"/>
<path d="M97.0166 59.3284L116.78 5.98438" stroke="black" stroke-miterlimit="10"/>
<path d="M100.191 60.7256L126.112 10.0859" stroke="black" stroke-miterlimit="10"/>
<path d="M103.179 62.4842L134.893 15.2578" stroke="black" stroke-miterlimit="10"/>
<path d="M105.938 64.5847L143.005 21.4297" stroke="black" stroke-miterlimit="10"/>
<path d="M108.431 66.9954L150.329 28.5156" stroke="black" stroke-miterlimit="10"/>
<path d="M110.622 69.681L156.769 36.4141" stroke="black" stroke-miterlimit="10"/>
<path d="M112.479 72.6102L162.228 45.0215" stroke="black" stroke-miterlimit="10"/>
<path d="M113.978 75.7372L166.635 54.2109" stroke="black" stroke-miterlimit="10"/>
<path d="M115.098 79.0184L169.928 63.8555" stroke="black" stroke-miterlimit="10"/>
<path d="M115.824 82.4108L172.06 73.8242" stroke="black" stroke-miterlimit="10"/>
<path d="M116.144 85.8616L173 83.9707" stroke="black" stroke-miterlimit="10"/>
<path d="M116.055 89.3281L172.736 94.1589" stroke="black" stroke-miterlimit="10"/>
<path d="M115.556 92.7598L171.272 104.245" stroke="black" stroke-miterlimit="10"/>
<path d="M114.656 96.1055L168.628 114.084" stroke="black" stroke-miterlimit="10"/>
<path d="M113.367 99.3262L164.841 123.548" stroke="black" stroke-miterlimit="10"/>
<path d="M111.708 102.371L159.963 132.499" stroke="black" stroke-miterlimit="10"/>
<path d="M109.702 105.199L154.065 140.809" stroke="black" stroke-miterlimit="10"/>
<path d="M107.376 107.77L147.228 148.367" stroke="black" stroke-miterlimit="10"/>
<path d="M104.762 110.047L139.544 155.062" stroke="black" stroke-miterlimit="10"/>
<path d="M101.897 112.002L131.126 160.807" stroke="black" stroke-miterlimit="10"/>
<path d="M98.8213 113.607L122.087 165.52" stroke="black" stroke-miterlimit="10"/>
<path d="M95.5801 114.834L112.557 169.129" stroke="black" stroke-miterlimit="10"/>
<path d="M92.2158 115.672L102.667 171.591" stroke="black" stroke-miterlimit="10"/>
<path d="M88.7754 116.107L92.556 172.869" stroke="black" stroke-miterlimit="10"/>
<path d="M85.3076 116.131L82.3643 172.942" stroke="black" stroke-miterlimit="10"/>
<path d="M81.8621 115.748L72.2354 171.815" stroke="black" stroke-miterlimit="10"/>
<path d="M78.4854 114.959L62.3105 169.499" stroke="black" stroke-miterlimit="10"/>
<path d="M75.2252 113.781L52.7275 166.031" stroke="black" stroke-miterlimit="10"/>
<path d="M72.1271 112.223L43.6211 161.453" stroke="black" stroke-miterlimit="10"/>
<path d="M69.2346 110.312L35.1191 155.835" stroke="black" stroke-miterlimit="10"/>
<path d="M66.5873 108.072L27.3379 149.252" stroke="black" stroke-miterlimit="10"/>
<path d="M64.2232 105.533L20.3887 141.793" stroke="black" stroke-miterlimit="10"/>
<path d="M62.1747 102.736L14.3691 133.572" stroke="black" stroke-miterlimit="10"/>
<path d="M60.471 99.7168L9.36035 124.696" stroke="black" stroke-miterlimit="10"/>
<path d="M59.1349 96.5156L5.43359 115.288" stroke="black" stroke-miterlimit="10"/>
<path d="M58.1859 93.1836L2.64453 105.489" stroke="black" stroke-miterlimit="10"/>
<path d="M57.6384 89.7578L1.0332 95.4236" stroke="black" stroke-miterlimit="10"/>
<path d="M57.497 86.2927L0.619141 85.2402" stroke="black" stroke-miterlimit="10"/>
<path d="M57.7653 82.8365L1.40918 75.0781" stroke="black" stroke-miterlimit="10"/>
<path d="M58.4402 79.4367L3.39355 65.084" stroke="black" stroke-miterlimit="10"/>
<path d="M59.5129 76.1374L6.54297 55.3887" stroke="black" stroke-miterlimit="10"/>
<path d="M60.965 72.9896L10.8145 46.1367" stroke="black" stroke-miterlimit="10"/>
<path d="M62.7798 70.0341L16.1484 37.4512" stroke="black" stroke-miterlimit="10"/>
<path d="M64.9306 67.3167L22.4697 29.459" stroke="black" stroke-miterlimit="10"/>
<path d="M67.3871 64.8697L29.6895 22.2656" stroke="black" stroke-miterlimit="10"/>
<path d="M70.1151 62.7269L37.708 15.9727" stroke="black" stroke-miterlimit="10"/>
<path d="M73.0766 60.9238L46.4131 10.6719" stroke="black" stroke-miterlimit="10"/>
<path d="M76.2307 59.4813L55.6826 6.43359" stroke="black" stroke-miterlimit="10"/>
<path d="M79.5321 58.4231L65.3867 3.32227" stroke="black" stroke-miterlimit="10"/>
<path d="M82.9349 57.7624L75.3906 1.37695" stroke="black" stroke-miterlimit="10"/>
<path d="M86.5 105C96.7173 105 105 96.7173 105 86.5C105 76.2827 96.7173 68 86.5 68C76.2827 68 68 76.2827 68 86.5C68 96.7173 76.2827 105 86.5 105Z" fill="black"/>
</svg>
