<svg width="174" height="177" viewBox="0 0 174 177" fill="none" xmlns="http://www.w3.org/2000/svg">
<path d="M3.90533 2.51478C3.73712 2.51478 3.59152 2.49074 3.44592 2.41865C3.30032 2.372 3.15473 2.27447 3.03457 2.15149C2.81688 1.9338 2.69531 1.64401 2.69531 1.30616C2.69531 0.992347 2.81688 0.678544 3.03457 0.460854C3.49399 2.79471e-05 4.31527 2.79471e-05 4.75207 0.460854C4.87222 0.556977 4.94573 0.701166 5.01782 0.845351C5.06588 0.992363 5.11536 1.16198 5.11536 1.30616C5.11536 1.64401 4.9952 1.9338 4.75207 2.15149C4.53438 2.39462 4.21915 2.51478 3.90533 2.51478Z" fill="black"/>
<path d="M157.288 1.31016C157.288 0.633061 157.821 0.101563 158.497 0.101563C159.15 0.101563 159.706 0.633061 159.706 1.31016C159.706 1.98868 159.15 2.51879 158.497 2.51879C157.821 2.51879 157.288 1.98868 157.288 1.31016ZM145.389 1.31016C145.389 0.633061 145.922 0.101563 146.597 0.101563C147.276 0.101563 147.806 0.633061 147.806 1.31016C147.806 1.98868 147.275 2.51879 146.597 2.51879C145.922 2.51879 145.389 1.98868 145.389 1.31016ZM133.491 1.31016C133.491 0.633061 134.046 0.101563 134.699 0.101563C135.376 0.101563 135.908 0.633061 135.908 1.31016C135.908 1.98868 135.375 2.51879 134.699 2.51879C134.046 2.51879 133.491 1.98868 133.491 1.31016ZM121.615 1.31016C121.615 0.633061 122.148 0.101563 122.824 0.101563C123.477 0.101563 124.033 0.633061 124.033 1.31016C124.033 1.98868 123.477 2.51879 122.824 2.51879C122.148 2.51879 121.615 1.98868 121.615 1.31016ZM109.716 1.31016C109.716 0.633061 110.249 0.101563 110.924 0.101563C111.577 0.101563 112.133 0.633061 112.133 1.31016C112.133 1.98868 111.577 2.51879 110.924 2.51879C110.249 2.51879 109.716 1.98868 109.716 1.31016ZM97.8177 1.31016C97.8177 0.633061 98.3507 0.101563 99.0264 0.101563C99.7035 0.101563 100.235 0.633061 100.235 1.31016C100.235 1.98868 99.702 2.51879 99.0264 2.51879C98.3507 2.51879 97.8177 1.98868 97.8177 1.31016ZM85.9183 1.31016C85.9183 0.633061 86.4738 0.101563 87.1269 0.101563C87.804 0.101563 88.3355 0.633061 88.3355 1.31016C88.3355 1.98868 87.8026 2.51879 87.1269 2.51879C86.4752 2.51879 85.9183 1.98868 85.9183 1.31016ZM74.0428 1.31016C74.0428 0.633061 74.5757 0.101563 75.2514 0.101563C75.9045 0.101563 76.46 0.633061 76.46 1.31016C76.46 1.98868 75.9045 2.51879 75.2514 2.51879C74.5757 2.51879 74.0428 1.98868 74.0428 1.31016ZM62.1447 1.31016C62.1447 0.633061 62.6777 0.101563 63.3534 0.101563C64.0305 0.101563 64.562 0.633061 64.562 1.31016C64.562 1.98868 64.029 2.51879 63.3534 2.51879C62.6777 2.51879 62.1447 1.98868 62.1447 1.31016ZM50.2453 1.31016C50.2453 0.633061 50.8008 0.101563 51.4539 0.101563C52.131 0.101563 52.6625 0.633061 52.6625 1.31016C52.6625 1.98868 52.1296 2.51879 51.4539 2.51879C50.8022 2.51879 50.2453 1.98868 50.2453 1.31016ZM38.3698 1.31016C38.3698 0.633061 38.9027 0.101563 39.5784 0.101563C40.2315 0.101563 40.787 0.633061 40.787 1.31016C40.787 1.98868 40.2315 2.51879 39.5784 2.51879C38.9027 2.51879 38.3698 1.98868 38.3698 1.31016ZM26.4717 1.31016C26.4717 0.633061 27.0047 0.101563 27.6818 0.101563C28.3589 0.101563 28.8904 0.633061 28.8904 1.31016C28.8904 1.98868 28.3575 2.51879 27.6818 2.51879C27.0032 2.51879 26.4717 1.98868 26.4717 1.31016ZM14.5723 1.31016C14.5723 0.633061 15.1292 0.101563 15.7809 0.101563C16.458 0.101563 16.9895 0.633061 16.9895 1.31016C16.9895 1.98868 16.4566 2.51879 15.7809 2.51879C15.1292 2.51879 14.5723 1.98868 14.5723 1.31016Z" fill="black"/>
<path d="M170.371 2.51478C170.057 2.51478 169.744 2.39462 169.524 2.15149C169.404 2.05537 169.331 1.91118 169.259 1.76699C169.185 1.61998 169.161 1.47579 169.161 1.30616C169.161 1.16198 169.209 0.992363 169.259 0.845351C169.331 0.701166 169.404 0.556977 169.524 0.460854C169.96 2.79471e-05 170.783 2.79471e-05 171.242 0.460854C171.338 0.556977 171.436 0.701166 171.509 0.845351C171.557 0.992363 171.581 1.16198 171.581 1.30616C171.581 1.47579 171.557 1.61998 171.509 1.76699C171.436 1.91118 171.339 2.05537 171.242 2.15149C171 2.39462 170.71 2.51478 170.371 2.51478Z" fill="black"/>
<path d="M3.90835 12.7496C3.54648 12.7496 3.20722 12.6054 2.94147 12.3383C2.82132 12.2181 2.72378 12.0739 2.65027 11.9269C2.57818 11.7587 2.55273 11.565 2.55273 11.3954C2.55273 11.0321 2.69834 10.6943 2.94006 10.4271C3.32738 10.0652 3.90694 9.94509 4.41442 10.1387C4.58404 10.2094 4.72823 10.307 4.8498 10.4271C5.11555 10.6943 5.26115 11.0321 5.26115 11.3954C5.26115 11.565 5.21309 11.7587 5.14099 11.9269C5.06749 12.0739 4.97136 12.2181 4.85121 12.3383C4.60949 12.6054 4.27023 12.7496 3.90835 12.7496Z" fill="black"/>
<path d="M157.144 11.3938C157.144 10.6446 157.749 10.041 158.498 10.041C159.225 10.041 159.829 10.646 159.829 11.3938C159.829 12.143 159.224 12.7466 158.498 12.7466C157.749 12.748 157.144 12.143 157.144 11.3938ZM145.246 11.3938C145.246 10.6446 145.851 10.041 146.6 10.041C147.351 10.041 147.954 10.646 147.954 11.3938C147.954 12.143 147.349 12.7466 146.6 12.7466C145.85 12.748 145.246 12.143 145.246 11.3938ZM133.347 11.3938C133.347 10.6446 133.952 10.041 134.701 10.041C135.45 10.041 136.055 10.646 136.055 11.3938C136.055 12.143 135.45 12.7466 134.701 12.7466C133.952 12.748 133.347 12.143 133.347 11.3938ZM121.471 11.3938C121.471 10.6446 122.076 10.041 122.801 10.041C123.551 10.041 124.156 10.646 124.156 11.3938C124.156 12.143 123.551 12.7466 122.801 12.7466C122.076 12.748 121.471 12.143 121.471 11.3938ZM109.572 11.3938C109.572 10.6446 110.177 10.041 110.926 10.041C111.676 10.041 112.28 10.646 112.28 11.3938C112.28 12.143 111.675 12.7466 110.926 12.7466C110.177 12.748 109.572 12.143 109.572 11.3938ZM97.6736 11.3938C97.6736 10.6446 98.2786 10.041 99.0278 10.041C99.777 10.041 100.382 10.646 100.382 11.3938C100.382 12.143 99.777 12.7466 99.0278 12.7466C98.2786 12.748 97.6736 12.143 97.6736 11.3938ZM85.7982 11.3938C85.7982 10.6446 86.4032 10.041 87.1524 10.041C87.8789 10.041 88.4825 10.646 88.4825 11.3938C88.4825 12.143 87.8775 12.7466 87.1524 12.7466C86.4032 12.748 85.7982 12.143 85.7982 11.3938ZM73.8987 11.3938C73.8987 10.6446 74.5037 10.041 75.2529 10.041C76.0035 10.041 76.6071 10.646 76.6071 11.3938C76.6071 12.143 76.0021 12.7466 75.2529 12.7466C74.5037 12.748 73.8987 12.143 73.8987 11.3938ZM62.0006 11.3938C62.0006 10.6446 62.6056 10.041 63.3548 10.041C64.104 10.041 64.709 10.646 64.709 11.3938C64.709 12.143 64.104 12.7466 63.3548 12.7466C62.6056 12.748 62.0006 12.143 62.0006 11.3938ZM50.1252 11.3938C50.1252 10.6446 50.7302 10.041 51.4794 10.041C52.2059 10.041 52.8095 10.646 52.8095 11.3938C52.8095 12.143 52.2045 12.7466 51.4794 12.7466C50.7302 12.748 50.1252 12.143 50.1252 11.3938ZM38.2257 11.3938C38.2257 10.6446 38.8307 10.041 39.5799 10.041C40.3291 10.041 40.9341 10.646 40.9341 11.3938C40.9341 12.143 40.3291 12.7466 39.5799 12.7466C38.8307 12.748 38.2257 12.143 38.2257 11.3938ZM26.3276 11.3938C26.3276 10.6446 26.9326 10.041 27.6818 10.041C28.431 10.041 29.036 10.646 29.036 11.3938C29.036 12.143 28.431 12.7466 27.6818 12.7466C26.9326 12.748 26.3276 12.143 26.3276 11.3938ZM14.4521 11.3938C14.4521 10.6446 15.0331 10.041 15.7823 10.041C16.5329 10.041 17.1365 10.646 17.1365 11.3938C17.1365 12.143 16.5315 12.7466 15.7823 12.7466C15.0331 12.748 14.4521 12.143 14.4521 11.3938Z" fill="black"/>
<path d="M170.372 12.7496C170.008 12.7496 169.671 12.6054 169.429 12.3383C169.163 12.098 169.018 11.7601 169.018 11.3954C169.018 11.0321 169.163 10.6943 169.429 10.4271C169.816 10.0652 170.396 9.94509 170.905 10.1387C171.049 10.2094 171.219 10.307 171.339 10.4271C171.58 10.6943 171.726 11.0321 171.726 11.3954C171.726 11.7587 171.58 12.0966 171.339 12.3383C171.193 12.4853 171.047 12.5814 170.905 12.6549C170.735 12.7016 170.565 12.7496 170.372 12.7496Z" fill="black"/>
<path d="M3.90703 22.9772C3.68934 22.9772 3.49568 22.9305 3.32746 22.857C3.15783 22.7835 2.9882 22.6874 2.84261 22.5432C2.69701 22.3962 2.60088 22.2294 2.52879 22.0597C2.45529 21.8661 2.40723 21.6724 2.40723 21.4788C2.40723 21.0914 2.57685 20.7041 2.84261 20.4158C3.39955 19.8588 4.39047 19.8588 4.94742 20.4158C5.23862 20.7041 5.38138 21.0914 5.38138 21.4788C5.38138 21.6724 5.35736 21.8661 5.28527 22.0597C5.21176 22.2294 5.0916 22.3976 4.94601 22.5432C4.68167 22.8061 4.29435 22.9772 3.90703 22.9772Z" fill="black"/>
<path d="M156.998 21.4803C156.998 20.659 157.675 19.9805 158.496 19.9805C159.319 19.9805 159.972 20.6576 159.972 21.4803C159.972 22.3015 159.319 22.9801 158.496 22.9801C157.675 22.9801 156.998 22.3015 156.998 21.4803ZM145.098 21.4803C145.098 20.659 145.777 19.9805 146.598 19.9805C147.419 19.9805 148.098 20.6576 148.098 21.4803C148.098 22.3015 147.419 22.9801 146.598 22.9801C145.775 22.9801 145.098 22.3015 145.098 21.4803ZM133.224 21.4803C133.224 20.659 133.877 19.9805 134.699 19.9805C135.52 19.9805 136.198 20.6576 136.198 21.4803C136.198 22.3015 135.52 22.9801 134.699 22.9801C133.877 22.9801 133.224 22.3015 133.224 21.4803ZM121.325 21.4803C121.325 20.659 121.978 19.9805 122.823 19.9805C123.646 19.9805 124.299 20.6576 124.299 21.4803C124.299 22.3015 123.646 22.9801 122.823 22.9801C121.978 22.9801 121.325 22.3015 121.325 21.4803ZM109.425 21.4803C109.425 20.659 110.102 19.9805 110.925 19.9805C111.748 19.9805 112.401 20.6576 112.401 21.4803C112.401 22.3015 111.748 22.9801 110.925 22.9801C110.102 22.9801 109.425 22.3015 109.425 21.4803ZM97.5257 21.4803C97.5257 20.659 98.2028 19.9805 99.0255 19.9805C99.8468 19.9805 100.525 20.6576 100.525 21.4803C100.525 22.3015 99.8482 22.9801 99.0255 22.9801C98.2042 22.9801 97.5257 22.3015 97.5257 21.4803ZM85.6517 21.4803C85.6517 20.659 86.3047 19.9805 87.126 19.9805C87.9728 19.9805 88.6258 20.6576 88.6258 21.4803C88.6258 22.3015 87.9728 22.9801 87.126 22.9801C86.3047 22.9801 85.6517 22.3015 85.6517 21.4803ZM73.7522 21.4803C73.7522 20.659 74.4293 19.9805 75.252 19.9805C76.0747 19.9805 76.7518 20.6576 76.7518 21.4803C76.7518 22.3015 76.0747 22.9801 75.252 22.9801C74.4293 22.9801 73.7522 22.3015 73.7522 21.4803ZM61.8527 21.4803C61.8527 20.659 62.5298 19.9805 63.3525 19.9805C64.1738 19.9805 64.8523 20.6576 64.8523 21.4803C64.8523 22.3015 64.1752 22.9801 63.3525 22.9801C62.5312 22.9801 61.8527 22.3015 61.8527 21.4803ZM49.9787 21.4803C49.9787 20.659 50.6317 19.9805 51.453 19.9805C52.2998 19.9805 52.9528 20.6576 52.9528 21.4803C52.9528 22.3015 52.2998 22.9801 51.453 22.9801C50.6317 22.9801 49.9787 22.3015 49.9787 21.4803ZM38.0792 21.4803C38.0792 20.659 38.7563 19.9805 39.579 19.9805C40.4003 19.9805 41.0534 20.6576 41.0534 21.4803C41.0534 22.3015 40.4003 22.9801 39.579 22.9801C38.7563 22.9801 38.0792 22.3015 38.0792 21.4803ZM26.1797 21.4803C26.1797 20.659 26.8568 19.9805 27.6795 19.9805C28.5008 19.9805 29.1793 20.6576 29.1793 21.4803C29.1793 22.3015 28.5022 22.9801 27.6795 22.9801C26.8582 22.9801 26.1797 22.3015 26.1797 21.4803ZM14.3057 21.4803C14.3057 20.659 14.9587 19.9805 15.78 19.9805C16.6027 19.9805 17.2798 20.6576 17.2798 21.4803C17.2798 22.3015 16.6027 22.9801 15.78 22.9801C14.9587 22.9801 14.3057 22.3015 14.3057 21.4803Z" fill="black"/>
<path d="M170.372 22.9803C169.984 22.9803 169.599 22.8107 169.331 22.5464C169.186 22.3993 169.066 22.2325 168.994 22.0629C168.92 21.8692 168.897 21.6756 168.897 21.4819C168.897 21.0946 169.043 20.7073 169.331 20.4189C169.453 20.2959 169.623 20.1758 169.815 20.1023C170.178 19.9581 170.588 19.9581 170.953 20.1023C171.121 20.1758 171.291 20.2959 171.436 20.4189C171.702 20.7073 171.872 21.0946 171.872 21.4819C171.872 21.6756 171.824 21.8692 171.75 22.0629C171.678 22.2325 171.582 22.4008 171.436 22.5464C171.145 22.8093 170.783 22.9803 170.372 22.9803Z" fill="black"/>
<path d="M3.90961 33.2157C3.69192 33.2157 3.47564 33.1662 3.28198 33.0927C3.08832 32.9966 2.89466 32.875 2.74907 32.7308C2.43525 32.417 2.26562 32.0057 2.26562 31.5689C2.26562 31.1349 2.43384 30.7236 2.74907 30.4097C3.18445 29.9489 3.93506 29.8047 4.53865 30.0691C4.7309 30.1426 4.90194 30.2627 5.04613 30.4097C5.35994 30.7236 5.52957 31.1349 5.52957 31.5689C5.52957 32.0057 5.36135 32.417 5.04613 32.7308C4.75634 33.0446 4.34499 33.2157 3.90961 33.2157Z" fill="black"/>
<path d="M156.855 31.5678C156.855 30.673 157.58 29.9238 158.499 29.9238C159.394 29.9238 160.119 30.673 160.119 31.5678C160.119 32.4626 159.394 33.2146 158.499 33.2146C157.58 33.2146 156.855 32.4626 156.855 31.5678ZM144.957 31.5678C144.957 30.673 145.706 29.9238 146.601 29.9238C147.496 29.9238 148.246 30.673 148.246 31.5678C148.246 32.4626 147.496 33.2146 146.601 33.2146C145.706 33.2146 144.957 32.4626 144.957 31.5678ZM133.082 31.5678C133.082 30.673 133.807 29.9238 134.702 29.9238C135.62 29.9238 136.347 30.673 136.347 31.5678C136.347 32.4626 135.62 33.2146 134.702 33.2146C133.807 33.2146 133.082 32.4626 133.082 31.5678ZM121.182 31.5678C121.182 30.673 121.907 29.9238 122.826 29.9238C123.721 29.9238 124.446 30.673 124.446 31.5678C124.446 32.4626 123.721 33.2146 122.826 33.2146C121.907 33.2146 121.182 32.4626 121.182 31.5678ZM109.284 31.5678C109.284 30.673 110.033 29.9238 110.928 29.9238C111.823 29.9238 112.548 30.673 112.548 31.5678C112.548 32.4626 111.823 33.2146 110.928 33.2146C110.033 33.2146 109.284 32.4626 109.284 31.5678ZM97.3831 31.5678C97.3831 30.673 98.1323 29.9238 99.0285 29.9238C99.9474 29.9238 100.674 30.673 100.674 31.5678C100.674 32.4626 99.9474 33.2146 99.0285 33.2146C98.1337 33.2146 97.3831 32.4626 97.3831 31.5678ZM85.5091 31.5678C85.5091 30.673 86.2343 29.9238 87.1531 29.9238C88.0479 29.9238 88.773 30.673 88.773 31.5678C88.773 32.4626 88.0479 33.2146 87.1531 33.2146C86.2343 33.2146 85.5091 32.4626 85.5091 31.5678ZM73.611 31.5678C73.611 30.673 74.3362 29.9238 75.255 29.9238C76.1498 29.9238 76.875 30.673 76.875 31.5678C76.875 32.4626 76.1498 33.2146 75.255 33.2146C74.3362 33.2146 73.611 32.4626 73.611 31.5678ZM61.7101 31.5678C61.7101 30.673 62.4593 29.9238 63.3555 29.9238C64.2744 29.9238 65.0009 30.673 65.0009 31.5678C65.0009 32.4626 64.2744 33.2146 63.3555 33.2146C62.4607 33.2146 61.7101 32.4626 61.7101 31.5678ZM49.8361 31.5678C49.8361 30.673 50.5612 29.9238 51.456 29.9238C52.3749 29.9238 53.1 30.673 53.1 31.5678C53.1 32.4626 52.3749 33.2146 51.456 33.2146C50.5612 33.2146 49.8361 32.4626 49.8361 31.5678ZM37.938 31.5678C37.938 30.673 38.6632 29.9238 39.582 29.9238C40.4768 29.9238 41.202 30.673 41.202 31.5678C41.202 32.4626 40.4768 33.2146 39.582 33.2146C38.6632 33.2146 37.938 32.4626 37.938 31.5678ZM26.0385 31.5678C26.0385 30.673 26.7877 29.9238 27.6839 29.9238C28.5787 29.9238 29.3293 30.673 29.3293 31.5678C29.3293 32.4626 28.5801 33.2146 27.6839 33.2146C26.7877 33.2146 26.0385 32.4626 26.0385 31.5678ZM14.1631 31.5678C14.1631 30.673 14.8883 29.9238 15.783 29.9238C16.7019 29.9238 17.427 30.673 17.427 31.5678C17.427 32.4626 16.7019 33.2146 15.783 33.2146C14.8883 33.2146 14.1631 32.4626 14.1631 31.5678Z" fill="black"/>
<path d="M170.376 33.2157C170.158 33.2157 169.964 33.1662 169.748 33.0927C169.555 32.9966 169.385 32.875 169.239 32.7308C168.925 32.417 168.756 32.0057 168.756 31.5689C168.756 31.1349 168.925 30.7236 169.215 30.4097C169.675 29.9489 170.4 29.8047 171.005 30.0691C171.199 30.1426 171.392 30.2627 171.538 30.4097C171.683 30.578 171.804 30.7476 171.901 30.9412C171.975 31.1349 172.023 31.3526 172.023 31.5689C172.023 32.0057 171.853 32.417 171.539 32.7308C171.223 33.0446 170.811 33.2157 170.376 33.2157Z" fill="black"/>
<path d="M3.90775 43.4395C3.66603 43.4395 3.42431 43.3928 3.23065 43.2953C3.01154 43.1992 2.8193 43.0762 2.64967 42.908C2.48145 42.7383 2.33586 42.5447 2.26376 42.327C2.16623 42.1093 2.11816 41.893 2.11816 41.6499C2.11816 41.4096 2.16623 41.1919 2.26376 40.9742C2.35989 40.7551 2.48145 40.5614 2.64967 40.3932C3.30274 39.7387 4.51276 39.7387 5.16442 40.3932C5.33263 40.5614 5.45562 40.7551 5.55174 40.9742C5.62383 41.1919 5.67189 41.4082 5.67189 41.6499C5.67189 41.893 5.62383 42.1107 5.55174 42.327C5.4542 42.5447 5.33263 42.7383 5.16442 42.908C4.9962 43.0762 4.80113 43.1992 4.58485 43.2953C4.36716 43.3928 4.12403 43.4395 3.90775 43.4395Z" fill="black"/>
<path d="M156.71 41.6509C156.71 40.6585 157.508 39.8867 158.499 39.8867C159.467 39.8867 160.265 40.6585 160.265 41.6509C160.265 42.6432 159.467 43.4404 158.499 43.4404C157.507 43.4404 156.71 42.6418 156.71 41.6509ZM144.81 41.6509C144.81 40.6585 145.607 39.8867 146.6 39.8867C147.592 39.8867 148.365 40.6585 148.365 41.6509C148.365 42.6432 147.592 43.4404 146.6 43.4404C145.607 43.4404 144.81 42.6418 144.81 41.6509ZM132.935 41.6509C132.935 40.6585 133.733 39.8867 134.7 39.8867C135.693 39.8867 136.49 40.6585 136.49 41.6509C136.49 42.6432 135.691 43.4404 134.7 43.4404C133.733 43.4404 132.935 42.6418 132.935 41.6509ZM121.037 41.6509C121.037 40.6585 121.835 39.8867 122.826 39.8867C123.794 39.8867 124.592 40.6585 124.592 41.6509C124.592 42.6432 123.794 43.4404 122.826 43.4404C121.834 43.4404 121.037 42.6418 121.037 41.6509ZM109.137 41.6509C109.137 40.6585 109.934 39.8867 110.927 39.8867C111.894 39.8867 112.692 40.6585 112.692 41.6509C112.692 42.6432 111.894 43.4404 110.927 43.4404C109.934 43.4404 109.137 42.6418 109.137 41.6509ZM97.2617 41.6509C97.2617 40.6585 98.0603 39.8867 99.0272 39.8867C100.02 39.8867 100.817 40.6585 100.817 41.6509C100.817 42.6432 100.018 43.4404 99.0272 43.4404C98.0603 43.4404 97.2617 42.6418 97.2617 41.6509ZM85.3636 41.6509C85.3636 40.6585 86.1623 39.8867 87.1532 39.8867C88.1215 39.8867 88.9187 40.6585 88.9187 41.6509C88.9187 42.6432 88.1215 43.4404 87.1532 43.4404C86.1608 43.4404 85.3636 42.6418 85.3636 41.6509ZM73.4641 41.6509C73.4641 40.6585 74.2614 39.8867 75.2537 39.8867C76.2206 39.8867 77.0192 40.6585 77.0192 41.6509C77.0192 42.6432 76.2206 43.4404 75.2537 43.4404C74.2614 43.4404 73.4641 42.6418 73.4641 41.6509ZM61.5646 41.6509C61.5646 40.6585 62.3873 39.8867 63.3556 39.8867C64.348 39.8867 65.1452 40.6585 65.1452 41.6509C65.1452 42.6432 64.3465 43.4404 63.3556 43.4404C62.3873 43.4404 61.5646 42.6418 61.5646 41.6509ZM49.6906 41.6509C49.6906 40.6585 50.4893 39.8867 51.4802 39.8867C52.4485 39.8867 53.2457 40.6585 53.2457 41.6509C53.2457 42.6432 52.4485 43.4404 51.4802 43.4404C50.4878 43.4404 49.6906 42.6418 49.6906 41.6509ZM37.7911 41.6509C37.7911 40.6585 38.5884 39.8867 39.5807 39.8867C40.5476 39.8867 41.3462 40.6585 41.3462 41.6509C41.3462 42.6432 40.5476 43.4404 39.5807 43.4404C38.5884 43.4404 37.7911 42.6418 37.7911 41.6509ZM25.8916 41.6509C25.8916 40.6585 26.7143 39.8867 27.6826 39.8867C28.6749 39.8867 29.4722 40.6585 29.4722 41.6509C29.4722 42.6432 28.6735 43.4404 27.6826 43.4404C26.7143 43.4404 25.8916 42.6418 25.8916 41.6509ZM14.0176 41.6509C14.0176 40.6585 14.8162 39.8867 15.7831 39.8867C16.7755 39.8867 17.5727 40.6585 17.5727 41.6509C17.5727 42.6432 16.7755 43.4404 15.7831 43.4404C14.8148 43.4404 14.0176 42.6418 14.0176 41.6509Z" fill="black"/>
<path d="M170.374 43.4395C169.915 43.4395 169.455 43.2458 169.116 42.908C168.946 42.7383 168.825 42.5447 168.729 42.327C168.656 42.1093 168.608 41.893 168.608 41.6499C168.608 41.4096 168.656 41.1919 168.729 40.9742C168.825 40.7551 168.946 40.5614 169.116 40.3932C169.793 39.7387 170.978 39.7387 171.631 40.3932C171.799 40.5614 171.92 40.7551 172.018 40.9742C172.114 41.1919 172.164 41.4082 172.164 41.6499C172.164 41.893 172.115 42.1107 172.018 42.327C171.944 42.5447 171.799 42.7383 171.631 42.908C171.461 43.0762 171.267 43.1992 171.05 43.2953C170.859 43.3928 170.616 43.4395 170.374 43.4395Z" fill="black"/>
<path d="M3.90643 53.6471C3.64068 53.6471 3.39896 53.6005 3.15723 53.5029C2.93954 53.4068 2.72326 53.2852 2.55222 53.0916C2.35856 52.9219 2.21438 52.7043 2.11826 52.464C2.02072 52.2449 1.97266 52.0031 1.97266 51.736C1.97266 51.4957 2.02072 51.2285 2.11826 51.0108C2.21579 50.7691 2.35856 50.5528 2.52961 50.3818C3.28022 49.6566 4.53688 49.6566 5.26205 50.3818C5.43026 50.5514 5.57586 50.7691 5.6734 51.0108C5.76952 51.2285 5.819 51.4942 5.819 51.736C5.819 52.0031 5.77093 52.2435 5.6734 52.464C5.57586 52.7043 5.43168 52.9219 5.26205 53.0916C5.06839 53.2852 4.87473 53.4294 4.63442 53.5029C4.38987 53.5991 4.14815 53.6471 3.90643 53.6471Z" fill="black"/>
<path d="M156.563 51.7354C156.563 50.6723 157.434 49.8242 158.497 49.8242C159.537 49.8242 160.408 50.6723 160.408 51.7354C160.408 52.7998 159.537 53.6465 158.497 53.6465C157.434 53.6465 156.563 52.7998 156.563 51.7354ZM144.664 51.7354C144.664 50.6723 145.534 49.8242 146.597 49.8242C147.662 49.8242 148.509 50.6723 148.509 51.7354C148.509 52.7998 147.662 53.6465 146.597 53.6465C145.534 53.6465 144.664 52.7998 144.664 51.7354ZM132.788 51.7354C132.788 50.6723 133.635 49.8242 134.699 49.8242C135.764 49.8242 136.633 50.6723 136.633 51.7354C136.633 52.7998 135.762 53.6465 134.699 53.6465C133.635 53.6465 132.788 52.7998 132.788 51.7354ZM120.89 51.7354C120.89 50.6723 121.761 49.8242 122.824 49.8242C123.864 49.8242 124.735 50.6723 124.735 51.7354C124.735 52.7998 123.864 53.6465 122.824 53.6465C121.761 53.6465 120.89 52.7998 120.89 51.7354ZM108.991 51.7354C108.991 50.6723 109.861 49.8242 110.924 49.8242C111.989 49.8242 112.836 50.6723 112.836 51.7354C112.836 52.7998 111.989 53.6465 110.924 53.6465C109.861 53.6465 108.991 52.7998 108.991 51.7354ZM97.1166 51.7354C97.1166 50.6723 97.9633 49.8242 99.0277 49.8242C100.092 49.8242 100.961 50.6723 100.961 51.7354C100.961 52.7998 100.091 53.6465 99.0277 53.6465C97.9633 53.6465 97.1166 52.7998 97.1166 51.7354ZM85.2171 51.7354C85.2171 50.6723 86.0879 49.8242 87.1283 49.8242C88.1927 49.8242 89.062 50.6723 89.062 51.7354C89.062 52.7998 88.1913 53.6465 87.1283 53.6465C86.0879 53.6465 85.2171 52.7998 85.2171 51.7354ZM73.3176 51.7354C73.3176 50.6723 74.1884 49.8242 75.2514 49.8242C76.3158 49.8242 77.1625 50.6723 77.1625 51.7354C77.1625 52.7998 76.3158 53.6465 75.2514 53.6465C74.1884 53.6465 73.3176 52.7998 73.3176 51.7354ZM61.4436 51.7354C61.4436 50.6723 62.2903 49.8242 63.3547 49.8242C64.4192 49.8242 65.2885 50.6723 65.2885 51.7354C65.2885 52.7998 64.4177 53.6465 63.3547 53.6465C62.2903 53.6465 61.4436 52.7998 61.4436 51.7354ZM49.5441 51.7354C49.5441 50.6723 50.4149 49.8242 51.4553 49.8242C52.5197 49.8242 53.389 50.6723 53.389 51.7354C53.389 52.7998 52.5183 53.6465 51.4553 53.6465C50.4149 53.6465 49.5441 52.7998 49.5441 51.7354ZM37.6446 51.7354C37.6446 50.6723 38.5154 49.8242 39.5784 49.8242C40.6428 49.8242 41.4895 50.6723 41.4895 51.7354C41.4895 52.7998 40.6428 53.6465 39.5784 53.6465C38.5154 53.6465 37.6446 52.7998 37.6446 51.7354ZM25.7692 51.7354C25.7692 50.6723 26.6159 49.8242 27.6803 49.8242C28.7447 49.8242 29.5915 50.6723 29.5915 51.7354C29.5915 52.7998 28.7447 53.6465 27.6803 53.6465C26.6173 53.6465 25.7692 52.7998 25.7692 51.7354ZM13.8711 51.7354C13.8711 50.6723 14.7178 49.8242 15.7822 49.8242C16.8467 49.8242 17.716 50.6723 17.716 51.7354C17.716 52.7998 16.8453 53.6465 15.7822 53.6465C14.7178 53.6465 13.8711 52.7998 13.8711 51.7354Z" fill="black"/>
<path d="M170.373 53.6491C169.866 53.6491 169.381 53.4554 169.019 53.0935C168.849 52.9239 168.705 52.7062 168.608 52.4659C168.511 52.2468 168.462 52.0051 168.462 51.7379C168.462 51.4976 168.51 51.2304 168.608 51.0127C168.704 50.771 168.849 50.5547 169.019 50.3837C169.574 49.8522 170.397 49.6826 171.124 49.9723C171.341 50.0699 171.559 50.19 171.729 50.3837C171.922 50.5533 172.068 50.771 172.164 51.0127C172.26 51.2304 172.308 51.4962 172.308 51.7379C172.308 52.0051 172.26 52.2454 172.164 52.4659C172.067 52.7062 171.922 52.9239 171.729 53.0935C171.559 53.2872 171.341 53.4314 171.124 53.5049C170.881 53.601 170.639 53.6491 170.373 53.6491Z" fill="black"/>
<path d="M3.90803 63.8742C3.3525 63.8742 2.82099 63.6565 2.43367 63.2691C2.24001 63.0755 2.09442 62.8578 1.99829 62.6147C1.90076 62.3503 1.83008 62.0831 1.83008 61.816C1.83008 61.5516 1.90217 61.2845 1.99829 61.0202C2.09583 60.777 2.24001 60.5593 2.43367 60.3657C2.62733 60.172 2.86905 60.0278 3.11078 59.9048C3.61825 59.714 4.1752 59.714 4.68408 59.9048C4.94984 60.0278 5.16753 60.172 5.36119 60.3657C5.55485 60.5593 5.70045 60.777 5.79657 61.0202C5.91673 61.2845 5.96479 61.5516 5.96479 61.816C5.96479 62.0831 5.91672 62.3503 5.81919 62.6147C5.69903 62.8578 5.55343 63.0755 5.35977 63.2691C5.16611 63.4628 4.94842 63.607 4.68267 63.7271C4.44095 63.8233 4.17378 63.8742 3.90803 63.8742Z" fill="black"/>
<path d="M156.418 61.8171C156.418 60.6805 157.36 59.7617 158.497 59.7617C159.635 59.7617 160.552 60.6805 160.552 61.8171C160.552 62.955 159.633 63.8738 158.497 63.8738C157.362 63.8752 156.418 62.9564 156.418 61.8171ZM144.542 61.8171C144.542 60.6805 145.462 59.7617 146.597 59.7617C147.735 59.7617 148.653 60.6805 148.653 61.8171C148.653 62.955 147.734 63.8738 146.597 63.8738C145.462 63.8752 144.542 62.9564 144.542 61.8171ZM132.644 61.8171C132.644 60.6805 133.563 59.7617 134.699 59.7617C135.836 59.7617 136.755 60.6805 136.755 61.8171C136.755 62.955 135.836 63.8738 134.699 63.8738C133.563 63.8752 132.644 62.9564 132.644 61.8171ZM120.745 61.8171C120.745 60.6805 121.663 59.7617 122.8 59.7617C123.96 59.7617 124.879 60.6805 124.879 61.8171C124.879 62.955 123.96 63.8738 122.8 63.8738C121.663 63.8752 120.745 62.9564 120.745 61.8171ZM108.869 61.8171C108.869 60.6805 109.789 59.7617 110.924 59.7617C112.062 59.7617 112.98 60.6805 112.98 61.8171C112.98 62.955 112.061 63.8738 110.924 63.8738C109.789 63.8752 108.869 62.9564 108.869 61.8171ZM96.9711 61.8171C96.9711 60.6805 97.8899 59.7617 99.0264 59.7617C100.163 59.7617 101.106 60.6805 101.106 61.8171C101.106 62.955 100.163 63.8738 99.0264 63.8738C97.8899 63.8752 96.9711 62.9564 96.9711 61.8171ZM85.0716 61.8171C85.0716 60.6805 85.9904 59.7617 87.1269 59.7617C88.2634 59.7617 89.2063 60.6805 89.2063 61.8171C89.2063 62.955 88.2634 63.8738 87.1269 63.8738C85.9904 63.8752 85.0716 62.9564 85.0716 61.8171ZM73.1735 61.8171C73.1735 60.6805 74.1178 59.7617 75.2529 59.7617C76.3908 59.7617 77.3096 60.6805 77.3096 61.8171C77.3096 62.955 76.3908 63.8738 75.2529 63.8738C74.1164 63.8752 73.1735 62.9564 73.1735 61.8171ZM61.2981 61.8171C61.2981 60.6805 62.2169 59.7617 63.3534 59.7617C64.4899 59.7617 65.4087 60.6805 65.4087 61.8171C65.4087 62.955 64.4899 63.8738 63.3534 63.8738C62.2169 63.8752 61.2981 62.9564 61.2981 61.8171ZM49.3986 61.8171C49.3986 60.6805 50.3174 59.7617 51.478 59.7617C52.6145 59.7617 53.5333 60.6805 53.5333 61.8171C53.5333 62.955 52.6145 63.8738 51.478 63.8738C50.3174 63.8752 49.3986 62.9564 49.3986 61.8171ZM37.5005 61.8171C37.5005 60.6805 38.4434 59.7617 39.5799 59.7617C40.7178 59.7617 41.6366 60.6805 41.6366 61.8171C41.6366 62.955 40.7178 63.8738 39.5799 63.8738C38.4434 63.8752 37.5005 62.9564 37.5005 61.8171ZM25.6251 61.8171C25.6251 60.6805 26.5439 59.7617 27.6818 59.7617C28.8183 59.7617 29.7372 60.6805 29.7372 61.8171C29.7372 62.955 28.8183 63.8738 27.6818 63.8738C26.5439 63.8752 25.6251 62.9564 25.6251 61.8171ZM13.7256 61.8171C13.7256 60.6805 14.6444 59.7617 15.7809 59.7617C16.9415 59.7617 17.8603 60.6805 17.8603 61.8171C17.8603 62.955 16.9415 63.8738 15.7809 63.8738C14.6444 63.8752 13.7256 62.9564 13.7256 61.8171Z" fill="black"/>
<path d="M170.373 63.8767C169.84 63.8767 169.309 63.659 168.921 63.2716C168.536 62.8843 168.316 62.3769 168.316 61.8199C168.316 61.5556 168.364 61.2884 168.486 61.0241C168.582 60.7809 168.728 60.5632 168.921 60.3696C169.115 60.1759 169.333 60.0317 169.599 59.9087C170.082 59.7179 170.663 59.7179 171.17 59.9087C171.412 60.0317 171.654 60.1759 171.848 60.3696C172.235 60.7569 172.453 61.2884 172.453 61.8199C172.453 62.0871 172.38 62.3542 172.284 62.6186C172.188 62.8617 172.019 63.0794 171.825 63.2731C171.631 63.4667 171.414 63.6349 171.172 63.7311C170.93 63.8258 170.664 63.8767 170.373 63.8767Z" fill="black"/>
<path d="M3.90758 74.1078C3.61639 74.1078 3.32802 74.0597 3.06085 73.9396C2.7951 73.8166 2.55338 73.6724 2.33569 73.4547C1.92434 73.0434 1.68262 72.4864 1.68262 71.9083C1.68262 71.6171 1.75471 71.3273 1.85083 71.0601C1.9724 70.793 2.14203 70.5526 2.33569 70.335C2.55338 70.1413 2.7951 69.9717 3.06085 69.8741C3.85952 69.5363 4.85044 69.7299 5.45545 70.335C5.67314 70.5526 5.81732 70.793 5.93889 71.0601C6.06046 71.3273 6.10852 71.6171 6.10852 71.9083C6.10852 72.4864 5.8668 73.0448 5.45545 73.4547C5.35791 73.5523 5.23776 73.6484 5.11619 73.7459C4.99603 73.8166 4.87447 73.8901 4.7529 73.9396C4.46312 74.0597 4.19737 74.1078 3.90758 74.1078Z" fill="black"/>
<path d="M156.274 71.906C156.274 70.6974 157.266 69.7051 158.499 69.7051C159.708 69.7051 160.7 70.6974 160.7 71.906C160.7 73.1146 159.708 74.1055 158.499 74.1055C157.266 74.1055 156.274 73.116 156.274 71.906ZM144.399 71.906C144.399 70.6974 145.391 69.7051 146.6 69.7051C147.808 69.7051 148.8 70.6974 148.8 71.906C148.8 73.1146 147.808 74.1055 146.6 74.1055C145.391 74.1055 144.399 73.116 144.399 71.906ZM132.501 71.906C132.501 70.6974 133.493 69.7051 134.701 69.7051C135.934 69.7051 136.902 70.6974 136.902 71.906C136.902 73.1146 135.934 74.1055 134.701 74.1055C133.493 74.1055 132.501 73.116 132.501 71.906ZM120.601 71.906C120.601 70.6974 121.593 69.7051 122.826 69.7051C124.035 69.7051 125.027 70.6974 125.027 71.906C125.027 73.1146 124.035 74.1055 122.826 74.1055C121.593 74.1055 120.601 73.116 120.601 71.906ZM108.727 71.906C108.727 70.6974 109.695 69.7051 110.928 69.7051C112.137 69.7051 113.129 70.6974 113.129 71.906C113.129 73.1146 112.137 74.1055 110.928 74.1055C109.695 74.1055 108.727 73.116 108.727 71.906ZM96.8275 71.906C96.8275 70.6974 97.8198 69.7051 99.0285 69.7051C100.261 69.7051 101.229 70.6974 101.229 71.906C101.229 73.1146 100.261 74.1055 99.0285 74.1055C97.8198 74.1055 96.8275 73.116 96.8275 71.906ZM84.928 71.906C84.928 70.6974 85.9204 69.7051 87.153 69.7051C88.3616 69.7051 89.3539 70.6974 89.3539 71.906C89.3539 73.1146 88.3616 74.1055 87.153 74.1055C85.9204 74.1055 84.928 73.116 84.928 71.906ZM73.054 71.906C73.054 70.6974 74.0223 69.7051 75.2549 69.7051C76.4635 69.7051 77.4559 70.6974 77.4559 71.906C77.4559 73.1146 76.4635 74.1055 75.2549 74.1055C74.0223 74.1055 73.054 73.116 73.054 71.906ZM61.1545 71.906C61.1545 70.6974 62.1468 69.7051 63.3555 69.7051C64.5641 69.7051 65.5564 70.6974 65.5564 71.906C65.5564 73.1146 64.5641 74.1055 63.3555 74.1055C62.1468 74.1055 61.1545 73.116 61.1545 71.906ZM49.255 71.906C49.255 70.6974 50.2474 69.7051 51.456 69.7051C52.6886 69.7051 53.6809 70.6974 53.6809 71.906C53.6809 73.1146 52.6886 74.1055 51.456 74.1055C50.2474 74.1055 49.255 73.116 49.255 71.906ZM37.357 71.906C37.357 70.6974 38.3493 69.7051 39.5819 69.7051C40.7905 69.7051 41.7829 70.6974 41.7829 71.906C41.7829 73.1146 40.7905 74.1055 39.5819 74.1055C38.3493 74.1055 37.357 73.116 37.357 71.906ZM25.4815 71.906C25.4815 70.6974 26.4738 69.7051 27.6824 69.7051C28.8911 69.7051 29.8834 70.6974 29.8834 71.906C29.8834 73.1146 28.8911 74.1055 27.6824 74.1055C26.4738 74.1055 25.4815 73.116 25.4815 71.906ZM13.582 71.906C13.582 70.6974 14.5744 69.7051 15.783 69.7051C17.0156 69.7051 18.0079 70.6974 18.0079 71.906C18.0079 73.1146 17.0156 74.1055 15.783 74.1055C14.5744 74.1055 13.582 73.116 13.582 71.906Z" fill="black"/>
<path d="M170.375 74.1061C169.794 74.1061 169.238 73.8644 168.827 73.4545C168.416 73.0431 168.174 72.4862 168.174 71.908C168.174 71.6168 168.222 71.327 168.343 71.0599C168.464 70.7927 168.609 70.5524 168.827 70.3347C169.65 69.5134 171.125 69.5134 171.947 70.3347C172.14 70.5524 172.31 70.7927 172.406 71.0599C172.528 71.327 172.576 71.6168 172.576 71.908C172.576 72.4862 172.357 73.0445 171.947 73.4545C171.851 73.552 171.729 73.6482 171.607 73.7457C171.487 73.8164 171.367 73.8899 171.221 73.9393C170.956 74.0581 170.666 74.1061 170.375 74.1061Z" fill="black"/>
<path d="M3.90718 84.3367C3.27955 84.3367 2.67454 84.0935 2.23916 83.6355C2.02147 83.4178 1.85185 83.1747 1.73169 82.8849C1.61154 82.5965 1.56348 82.3068 1.56348 81.9915C1.56348 81.3611 1.80378 80.7561 2.24058 80.3221C3.11134 79.4499 4.68465 79.4499 5.554 80.3221C5.98797 80.7575 6.25513 81.3611 6.25513 81.9915C6.25513 82.3053 6.18163 82.5965 6.06147 82.8849C5.96394 83.1761 5.77028 83.4192 5.554 83.6355C5.33489 83.8758 5.09459 84.0469 4.80339 84.167C4.5122 84.2872 4.221 84.3367 3.90718 84.3367Z" fill="black"/>
<path d="M156.13 81.9944C156.13 80.6883 157.194 79.6465 158.5 79.6465C159.782 79.6465 160.847 80.6883 160.847 81.9944C160.847 83.2751 159.782 84.3396 158.5 84.3396C157.193 84.3396 156.13 83.2737 156.13 81.9944ZM144.255 81.9944C144.255 80.6883 145.294 79.6465 146.601 79.6465C147.907 79.6465 148.947 80.6883 148.947 81.9944C148.947 83.2751 147.907 84.3396 146.601 84.3396C145.294 84.3396 144.255 83.2737 144.255 81.9944ZM132.355 81.9944C132.355 80.6883 133.42 79.6465 134.701 79.6465C136.007 79.6465 137.048 80.6883 137.048 81.9944C137.048 83.2751 136.007 84.3396 134.701 84.3396C133.42 84.3396 132.355 83.2737 132.355 81.9944ZM120.481 81.9944C120.481 80.6883 121.52 79.6465 122.802 79.6465C124.108 79.6465 125.172 80.6883 125.172 81.9944C125.172 83.2751 124.108 84.3396 122.802 84.3396C121.52 84.3396 120.481 83.2737 120.481 81.9944ZM108.582 81.9944C108.582 80.6883 109.621 79.6465 110.928 79.6465C112.21 79.6465 113.274 80.6883 113.274 81.9944C113.274 83.2751 112.21 84.3396 110.928 84.3396C109.621 84.3396 108.582 83.2737 108.582 81.9944ZM96.6816 81.9944C96.6816 80.6883 97.7474 79.6465 99.0281 79.6465C100.334 79.6465 101.375 80.6883 101.375 81.9944C101.375 83.2751 100.334 84.3396 99.0281 84.3396C97.7474 84.3396 96.6816 83.2737 96.6816 81.9944ZM84.7835 81.9944C84.7835 80.6883 85.8479 79.6465 87.1541 79.6465C88.4362 79.6465 89.4752 80.6883 89.4752 81.9944C89.4752 83.2751 88.4362 84.3396 87.1541 84.3396C85.8465 84.3396 84.7835 83.2737 84.7835 81.9944ZM72.9095 81.9944C72.9095 80.6883 73.9484 79.6465 75.2546 79.6465C76.5367 79.6465 77.6011 80.6883 77.6011 81.9944C77.6011 83.2751 76.5367 84.3396 75.2546 84.3396C73.9484 84.3396 72.9095 83.2737 72.9095 81.9944ZM61.0086 81.9944C61.0086 80.6883 62.049 79.6465 63.3551 79.6465C64.6613 79.6465 65.7016 80.6883 65.7016 81.9944C65.7016 83.2751 64.6613 84.3396 63.3551 84.3396C62.049 84.3396 61.0086 83.2737 61.0086 81.9944ZM49.1105 81.9944C49.1105 80.6883 50.1749 79.6465 51.457 79.6465C52.7632 79.6465 53.8276 80.6883 53.8276 81.9944C53.8276 83.2751 52.7632 84.3396 51.457 84.3396C50.1735 84.3396 49.1105 83.2737 49.1105 81.9944ZM37.2365 81.9944C37.2365 80.6883 38.2754 79.6465 39.5816 79.6465C40.8637 79.6465 41.9281 80.6883 41.9281 81.9944C41.9281 83.2751 40.8637 84.3396 39.5816 84.3396C38.2754 84.3396 37.2365 83.2737 37.2365 81.9944ZM25.3356 81.9944C25.3356 80.6883 26.4014 79.6465 27.6821 79.6465C28.9882 79.6465 30.0286 80.6883 30.0286 81.9944C30.0286 83.2751 28.9882 84.3396 27.6821 84.3396C26.4014 84.3396 25.3356 83.2737 25.3356 81.9944ZM13.4375 81.9944C13.4375 80.6883 14.5019 79.6465 15.784 79.6465C17.0902 79.6465 18.1292 80.6883 18.1292 81.9944C18.1292 83.2751 17.0902 84.3396 15.784 84.3396C14.5005 84.3396 13.4375 83.2737 13.4375 81.9944Z" fill="black"/>
<path d="M170.373 84.3367C169.745 84.3367 169.164 84.0935 168.728 83.6355C168.51 83.4178 168.316 83.1747 168.22 82.8849C168.1 82.5965 168.026 82.3068 168.026 81.9915C168.026 81.3611 168.294 80.7561 168.728 80.3221C169.6 79.4499 171.146 79.4499 172.041 80.3221C172.476 80.7575 172.719 81.3611 172.719 81.9915C172.719 82.3053 172.671 82.5965 172.55 82.8849C172.43 83.1761 172.259 83.4192 172.042 83.6355C171.606 84.0935 171.002 84.3367 170.373 84.3367Z" fill="black"/>
<path d="M3.90771 94.5668C3.23061 94.5668 2.60156 94.3024 2.14215 93.8416C1.65871 93.3582 1.41699 92.7291 1.41699 92.0775C1.41699 91.423 1.68274 90.7713 2.14215 90.3105C2.26372 90.1903 2.38388 90.0928 2.52947 89.9967C2.64963 89.9232 2.79523 89.8271 2.94083 89.779C3.10904 89.7055 3.25464 89.6588 3.42568 89.632C4.22294 89.4638 5.0937 89.7281 5.67468 90.3091C6.13409 90.7699 6.40126 91.4216 6.40126 92.0761C6.40126 92.7277 6.13409 93.3568 5.67468 93.8402C5.18982 94.3024 4.56078 94.5668 3.90771 94.5668Z" fill="black"/>
<path d="M156.006 92.0781C156.006 90.6984 157.119 89.5859 158.497 89.5859C159.851 89.5859 160.989 90.6984 160.989 92.0781C160.989 93.4549 159.853 94.5674 158.497 94.5674C157.119 94.5674 156.006 93.4549 156.006 92.0781ZM144.108 92.0781C144.108 90.6984 145.221 89.5859 146.599 89.5859C147.979 89.5859 149.091 90.6984 149.091 92.0781C149.091 93.4549 147.979 94.5674 146.599 94.5674C145.221 94.5674 144.108 93.4549 144.108 92.0781ZM132.209 92.0781C132.209 90.6984 133.321 89.5859 134.7 89.5859C136.078 89.5859 137.19 90.6984 137.19 92.0781C137.19 93.4549 136.078 94.5674 134.7 94.5674C133.321 94.5674 132.209 93.4549 132.209 92.0781ZM120.333 92.0781C120.333 90.6984 121.446 89.5859 122.8 89.5859C124.178 89.5859 125.291 90.6984 125.291 92.0781C125.291 93.4549 124.178 94.5674 122.8 94.5674C121.446 94.5674 120.333 93.4549 120.333 92.0781ZM108.435 92.0781C108.435 90.6984 109.548 89.5859 110.926 89.5859C112.306 89.5859 113.418 90.6984 113.418 92.0781C113.418 93.4549 112.306 94.5674 110.926 94.5674C109.548 94.5674 108.435 93.4549 108.435 92.0781ZM96.5359 92.0781C96.5359 90.6984 97.6484 89.5859 99.0266 89.5859C100.405 89.5859 101.517 90.6984 101.517 92.0781C101.517 93.4549 100.405 94.5674 99.0266 94.5674C97.6484 94.5674 96.5359 93.4549 96.5359 92.0781ZM84.6364 92.0781C84.6364 90.6984 85.7744 89.5859 87.1512 89.5859C88.5054 89.5859 89.6179 90.6984 89.6179 92.0781C89.6179 93.4549 88.5054 94.5674 87.1512 94.5674C85.7729 94.5674 84.6364 93.4549 84.6364 92.0781ZM72.7624 92.0781C72.7624 90.6984 73.8749 89.5859 75.2531 89.5859C76.6328 89.5859 77.7452 90.6984 77.7452 92.0781C77.7452 93.4549 76.6328 94.5674 75.2531 94.5674C73.8749 94.5674 72.7624 93.4549 72.7624 92.0781ZM60.8629 92.0781C60.8629 90.6984 61.9754 89.5859 63.3536 89.5859C64.7319 89.5859 65.8443 90.6984 65.8443 92.0781C65.8443 93.4549 64.7319 94.5674 63.3536 94.5674C61.9754 94.5674 60.8629 93.4549 60.8629 92.0781ZM48.9875 92.0781C48.9875 90.6984 50.0999 89.5859 51.4782 89.5859C52.8324 89.5859 53.9449 90.6984 53.9449 92.0781C53.9449 93.4549 52.8324 94.5674 51.4782 94.5674C50.0999 94.5674 48.9875 93.4549 48.9875 92.0781ZM37.0894 92.0781C37.0894 90.6984 38.2019 89.5859 39.5801 89.5859C40.9598 89.5859 42.0722 90.6984 42.0722 92.0781C42.0722 93.4549 40.9598 94.5674 39.5801 94.5674C38.2019 94.5674 37.0894 93.4549 37.0894 92.0781ZM25.1899 92.0781C25.1899 90.6984 26.3024 89.5859 27.6806 89.5859C29.0589 89.5859 30.1713 90.6984 30.1713 92.0781C30.1713 93.4549 29.0589 94.5674 27.6806 94.5674C26.3024 94.5674 25.1899 93.4549 25.1899 92.0781ZM13.3145 92.0781C13.3145 90.6984 14.4269 89.5859 15.7811 89.5859C17.1594 89.5859 18.2719 90.6984 18.2719 92.0781C18.2719 93.4549 17.1594 94.5674 15.7811 94.5674C14.4269 94.5674 13.3145 93.4549 13.3145 92.0781Z" fill="black"/>
<path d="M170.373 94.5684C169.719 94.5684 169.092 94.304 168.607 93.8432C168.148 93.3598 167.882 92.7307 167.882 92.0791C167.882 91.4246 168.148 90.7729 168.607 90.3121C168.849 90.0944 169.114 89.9008 169.428 89.7806C169.888 89.5869 170.371 89.5375 170.856 89.6336C171.026 89.659 171.17 89.7071 171.339 89.7806C171.485 89.8272 171.631 89.9248 171.751 89.9983C171.896 90.0944 172.018 90.1919 172.138 90.3121C172.598 90.7729 172.863 91.4246 172.863 92.0791C172.863 92.7307 172.622 93.3598 172.138 93.8432C171.679 94.304 171.05 94.5684 170.373 94.5684Z" fill="black"/>
<path d="M3.90932 104.796C3.20818 104.796 2.53108 104.506 2.04764 104.021C1.54017 103.514 1.27441 102.862 1.27441 102.16C1.27441 101.99 1.29845 101.819 1.32248 101.652C1.34651 101.483 1.42001 101.311 1.46808 101.145C1.54017 100.998 1.61367 100.831 1.70838 100.684C1.80592 100.54 1.92749 100.417 2.04764 100.297C2.16921 100.176 2.28936 100.056 2.43496 99.9587C2.58056 99.8626 2.72474 99.7891 2.89437 99.7184C3.064 99.6689 3.23363 99.6222 3.37923 99.5714C4.24999 99.4017 5.14478 99.6915 5.77241 100.297C5.89398 100.417 5.9901 100.54 6.08623 100.684C6.18376 100.831 6.25586 100.998 6.32795 101.145C6.40145 101.313 6.44952 101.483 6.47355 101.652C6.52161 101.82 6.52161 101.99 6.52161 102.16C6.52161 102.861 6.25586 103.512 5.771 104.021C5.50525 104.264 5.23949 104.458 4.90023 104.578C4.58642 104.722 4.24858 104.796 3.90932 104.796Z" fill="black"/>
<path d="M155.863 102.166C155.863 100.712 157.049 99.5293 158.499 99.5293C159.951 99.5293 161.112 100.712 161.112 102.166C161.112 103.616 159.951 104.802 158.499 104.802C157.047 104.801 155.863 103.615 155.863 102.166ZM143.963 102.166C143.963 100.712 145.148 99.5293 146.6 99.5293C148.051 99.5293 149.236 100.712 149.236 102.166C149.236 103.616 148.051 104.802 146.6 104.802C145.148 104.801 143.963 103.615 143.963 102.166ZM132.065 102.166C132.065 100.712 133.25 99.5293 134.702 99.5293C136.153 99.5293 137.338 100.712 137.338 102.166C137.338 103.616 136.153 104.802 134.702 104.802C133.249 104.801 132.065 103.615 132.065 102.166ZM120.19 102.166C120.19 100.712 121.35 99.5293 122.826 99.5293C124.278 99.5293 125.439 100.712 125.439 102.166C125.439 103.616 124.278 104.802 122.826 104.802C121.35 104.801 120.19 103.615 120.19 102.166ZM108.29 102.166C108.29 100.712 109.475 99.5293 110.927 99.5293C112.378 99.5293 113.563 100.712 113.563 102.166C113.563 103.616 112.378 104.802 110.927 104.802C109.475 104.801 108.29 103.615 108.29 102.166ZM96.3923 102.166C96.3923 100.712 97.5769 99.5293 99.0287 99.5293C100.48 99.5293 101.665 100.712 101.665 102.166C101.665 103.616 100.48 104.802 99.0287 104.802C97.5755 104.801 96.3923 103.615 96.3923 102.166ZM84.5169 102.166C84.5169 100.712 85.6775 99.5293 87.1532 99.5293C88.605 99.5293 89.7655 100.712 89.7655 102.166C89.7655 103.616 88.605 104.802 87.1532 104.802C85.6775 104.801 84.5169 103.615 84.5169 102.166ZM72.6174 102.166C72.6174 100.712 73.802 99.5293 75.2537 99.5293C76.7055 99.5293 77.8901 100.712 77.8901 102.166C77.8901 103.616 76.7055 104.802 75.2537 104.802C73.802 104.801 72.6174 103.615 72.6174 102.166ZM60.7193 102.166C60.7193 100.712 61.9039 99.5293 63.3557 99.5293C64.8074 99.5293 65.992 100.712 65.992 102.166C65.992 103.616 64.8074 104.802 63.3557 104.802C61.9025 104.801 60.7193 103.615 60.7193 102.166ZM48.8439 102.166C48.8439 100.712 50.0045 99.5293 51.4562 99.5293C52.9306 99.5293 54.0925 100.712 54.0925 102.166C54.0925 103.616 52.932 104.802 51.4562 104.802C50.0045 104.801 48.8439 103.615 48.8439 102.166ZM36.9444 102.166C36.9444 100.712 38.129 99.5293 39.5807 99.5293C41.0325 99.5293 42.193 100.712 42.193 102.166C42.193 103.616 41.0325 104.802 39.5807 104.802C38.129 104.801 36.9444 103.615 36.9444 102.166ZM25.0464 102.166C25.0464 100.712 26.2309 99.5293 27.6827 99.5293C29.1344 99.5293 30.319 100.712 30.319 102.166C30.319 103.616 29.1344 104.802 27.6827 104.802C26.2295 104.801 25.0464 103.615 25.0464 102.166ZM13.1709 102.166C13.1709 100.712 14.3314 99.5293 15.7832 99.5293C17.2575 99.5293 18.4195 100.712 18.4195 102.166C18.4195 103.616 17.259 104.802 15.7832 104.802C14.3314 104.801 13.1709 103.615 13.1709 102.166Z" fill="black"/>
<path d="M170.373 104.798C169.672 104.798 169.019 104.508 168.512 104.023C168.27 103.783 168.076 103.492 167.956 103.178C167.81 102.837 167.738 102.501 167.738 102.163C167.738 101.993 167.762 101.822 167.81 101.655C167.836 101.486 167.884 101.315 167.956 101.148C168.028 101.001 168.102 100.834 168.198 100.687C168.294 100.543 168.391 100.42 168.512 100.3C168.632 100.18 168.777 100.06 168.923 99.962C169.068 99.8659 169.213 99.7924 169.382 99.7217C169.528 99.6722 169.697 99.6255 169.867 99.5747C170.206 99.5012 170.568 99.5012 170.908 99.5747C171.052 99.6241 171.221 99.6722 171.391 99.7217C171.561 99.7924 171.705 99.8659 171.85 99.962C171.996 100.06 172.118 100.18 172.238 100.3C172.479 100.543 172.673 100.834 172.817 101.148C172.865 101.316 172.939 101.486 172.963 101.655C172.988 101.824 173.011 101.993 173.011 102.163C173.011 102.864 172.745 103.516 172.238 104.025C171.751 104.508 171.074 104.798 170.373 104.798Z" fill="black"/>
<path d="M3.90843 115.029C3.18327 115.029 2.45669 114.715 1.94922 114.208C1.80362 114.088 1.7075 113.943 1.58593 113.796C1.48839 113.628 1.41771 113.483 1.34421 113.313C1.27211 113.145 1.22405 112.975 1.17599 112.781C1.15196 112.612 1.12793 112.42 1.12793 112.25C1.12793 112.056 1.15196 111.887 1.17599 111.693C1.22405 111.525 1.27353 111.355 1.34421 111.185C1.41771 111.017 1.48981 110.848 1.58593 110.702C1.70608 110.558 1.80362 110.414 1.94922 110.291C2.57826 109.639 3.54656 109.348 4.44135 109.519C4.60957 109.565 4.80323 109.615 4.97286 109.687C5.14249 109.761 5.28809 109.834 5.43227 109.954C5.6019 110.05 5.7475 110.172 5.86765 110.292C5.9878 110.415 6.10937 110.559 6.20691 110.703C6.30444 110.85 6.40057 111.02 6.47266 111.187C6.54476 111.356 6.59281 111.528 6.61826 111.694C6.66632 111.888 6.66632 112.058 6.66632 112.251C6.66632 112.421 6.66632 112.613 6.61826 112.783C6.59281 112.976 6.54476 113.146 6.47266 113.314C6.40057 113.484 6.30444 113.631 6.20691 113.798C6.10937 113.945 5.98922 114.089 5.86765 114.209C5.7475 114.329 5.6019 114.452 5.43227 114.55C5.28809 114.646 5.14249 114.743 4.97286 114.814C4.80464 114.888 4.61098 114.934 4.44135 114.961C4.27031 115.006 4.07806 115.029 3.90843 115.029Z" fill="black"/>
<path d="M155.718 112.249C155.718 110.699 156.952 109.467 158.499 109.467C160.024 109.467 161.257 110.699 161.257 112.249C161.257 113.773 160.024 115.029 158.499 115.029C156.952 115.028 155.718 113.773 155.718 112.249ZM143.819 112.249C143.819 110.699 145.077 109.467 146.599 109.467C148.123 109.467 149.38 110.699 149.38 112.249C149.38 113.773 148.122 115.029 146.599 115.029C145.077 115.028 143.819 113.773 143.819 112.249ZM131.945 112.249C131.945 110.699 133.179 109.467 134.703 109.467C136.251 109.467 137.483 110.699 137.483 112.249C137.483 113.773 136.251 115.029 134.703 115.029C133.179 115.028 131.945 113.773 131.945 112.249ZM120.045 112.249C120.045 110.699 121.279 109.467 122.803 109.467C124.351 109.467 125.584 110.699 125.584 112.249C125.584 113.773 124.351 115.029 122.803 115.029C121.279 115.028 120.045 113.773 120.045 112.249ZM108.146 112.249C108.146 110.699 109.379 109.467 110.926 109.467C112.45 109.467 113.707 110.699 113.707 112.249C113.707 113.773 112.449 115.029 110.926 115.029C109.379 115.028 108.146 113.773 108.146 112.249ZM96.2478 112.249C96.2478 110.699 97.5059 109.467 99.0283 109.467C100.576 109.467 101.809 110.699 101.809 112.249C101.809 113.773 100.576 115.029 99.0283 115.029C97.5045 115.028 96.2478 113.773 96.2478 112.249ZM84.3724 112.249C84.3724 110.699 85.6064 109.467 87.1529 109.467C88.6767 109.467 89.9108 110.699 89.9108 112.249C89.9108 113.773 88.6781 115.029 87.1529 115.029C85.6064 115.028 84.3724 113.773 84.3724 112.249ZM72.4729 112.249C72.4729 110.699 73.7055 109.467 75.2534 109.467C76.7772 109.467 78.0113 110.699 78.0113 112.249C78.0113 113.773 76.7772 115.029 75.2534 115.029C73.7055 115.028 72.4729 113.773 72.4729 112.249ZM60.5748 112.249C60.5748 110.699 61.8329 109.467 63.3553 109.467C64.8792 109.467 66.1358 110.699 66.1358 112.249C66.1358 113.773 64.8778 115.029 63.3553 115.029C61.8315 115.028 60.5748 113.773 60.5748 112.249ZM48.6994 112.249C48.6994 110.699 49.9334 109.467 51.4573 109.467C53.0051 109.467 54.2378 110.699 54.2378 112.249C54.2378 113.773 53.0051 115.029 51.4573 115.029C49.9334 115.028 48.6994 113.773 48.6994 112.249ZM36.7999 112.249C36.7999 110.699 38.0325 109.467 39.5804 109.467C41.1042 109.467 42.3609 110.699 42.3609 112.249C42.3609 113.773 41.1028 115.029 39.5804 115.029C38.0339 115.028 36.7999 113.773 36.7999 112.249ZM24.9018 112.249C24.9018 110.699 26.1599 109.467 27.6823 109.467C29.2302 109.467 30.4628 110.699 30.4628 112.249C30.4628 113.773 29.2302 115.029 27.6823 115.029C26.1599 115.028 24.9018 113.773 24.9018 112.249ZM13.0264 112.249C13.0264 110.699 14.2604 109.467 15.7843 109.467C17.3321 109.467 18.5648 110.699 18.5648 112.249C18.5648 113.773 17.3321 115.029 15.7843 115.029C14.2604 115.028 13.0264 113.773 13.0264 112.249Z" fill="black"/>
<path d="M170.375 115.029C169.65 115.029 168.949 114.715 168.416 114.208C168.296 114.088 168.174 113.943 168.077 113.796C167.98 113.628 167.884 113.483 167.811 113.313C167.763 113.145 167.691 112.975 167.665 112.781C167.617 112.612 167.617 112.42 167.617 112.25C167.617 112.056 167.617 111.887 167.665 111.693C167.691 111.525 167.761 111.355 167.811 111.185C167.884 111.017 167.979 110.848 168.077 110.702C168.174 110.558 168.296 110.414 168.416 110.291C169.069 109.639 170.036 109.348 170.932 109.519C171.1 109.565 171.271 109.615 171.439 109.687C171.608 109.761 171.779 109.834 171.923 109.954C172.069 110.05 172.213 110.172 172.334 110.292C172.48 110.415 172.6 110.559 172.698 110.703C172.794 110.85 172.866 111.02 172.939 111.187C173.011 111.356 173.059 111.528 173.107 111.694C173.133 111.888 173.156 112.058 173.156 112.251C173.156 112.421 173.132 112.613 173.107 112.783C173.059 112.976 173.011 113.146 172.939 113.314C172.866 113.484 172.794 113.631 172.698 113.798C172.6 113.945 172.48 114.089 172.334 114.209C172.213 114.329 172.069 114.452 171.923 114.55C171.777 114.647 171.608 114.743 171.439 114.814C171.271 114.888 171.1 114.934 170.932 114.961C170.738 115.006 170.569 115.029 170.375 115.029Z" fill="black"/>
<path d="M3.90755 125.26C3.13432 125.26 2.38371 124.947 1.82818 124.388C1.56242 124.124 1.34332 123.81 1.19914 123.445C1.05495 123.082 0.981445 122.72 0.981445 122.333C0.981445 121.558 1.29526 120.809 1.82818 120.278C2.94066 119.162 4.87444 119.189 5.9643 120.278C6.49722 120.809 6.81103 121.558 6.81103 122.333C6.81103 123.108 6.52125 123.833 5.9643 124.388C5.40735 124.947 4.68219 125.26 3.90755 125.26Z" fill="black"/>
<path d="M155.571 122.33C155.571 120.71 156.877 119.404 158.497 119.404C160.094 119.404 161.399 120.71 161.399 122.33C161.399 123.928 160.093 125.257 158.497 125.257C156.877 125.257 155.571 123.928 155.571 122.33ZM143.673 122.33C143.673 120.71 144.979 119.404 146.599 119.404C148.196 119.404 149.501 120.71 149.501 122.33C149.501 123.928 148.195 125.257 146.599 125.257C144.979 125.257 143.673 123.928 143.673 122.33ZM131.797 122.33C131.797 120.71 133.104 119.404 134.699 119.404C136.319 119.404 137.626 120.71 137.626 122.33C137.626 123.928 136.319 125.257 134.699 125.257C133.104 125.257 131.797 123.928 131.797 122.33ZM119.898 122.33C119.898 120.71 121.204 119.404 122.824 119.404C124.42 119.404 125.726 120.71 125.726 122.33C125.726 123.928 124.42 125.257 122.824 125.257C121.204 125.257 119.898 123.928 119.898 122.33ZM108 122.33C108 120.71 109.306 119.404 110.926 119.404C112.523 119.404 113.828 120.71 113.828 122.33C113.828 123.928 112.522 125.257 110.926 125.257C109.306 125.257 108 123.928 108 122.33ZM96.1244 122.33C96.1244 120.71 97.4305 119.404 99.0279 119.404C100.648 119.404 101.954 120.71 101.954 122.33C101.954 123.928 100.648 125.257 99.0279 125.257C97.4305 125.257 96.1244 123.928 96.1244 122.33ZM84.2249 122.33C84.2249 120.71 85.5311 119.404 87.151 119.404C88.7484 119.404 90.0531 120.71 90.0531 122.33C90.0531 123.928 88.7469 125.257 87.151 125.257C85.5311 125.257 84.2249 123.928 84.2249 122.33ZM72.3269 122.33C72.3269 120.71 73.633 119.404 75.253 119.404C76.8503 119.404 78.1564 120.71 78.1564 122.33C78.1564 123.928 76.8503 125.257 75.253 125.257C73.633 125.257 72.3269 123.928 72.3269 122.33ZM60.4514 122.33C60.4514 120.71 61.7575 119.404 63.3549 119.404C64.9748 119.404 66.281 120.71 66.281 122.33C66.281 123.928 64.9748 125.257 63.3549 125.257C61.7575 125.257 60.4514 123.928 60.4514 122.33ZM48.5519 122.33C48.5519 120.71 49.8581 119.404 51.454 119.404C53.0739 119.404 54.3801 120.71 54.3801 122.33C54.3801 123.928 53.0739 125.257 51.454 125.257C49.8581 125.257 48.5519 123.928 48.5519 122.33ZM36.6538 122.33C36.6538 120.71 37.96 119.404 39.5799 119.404C41.1759 119.404 42.4834 120.71 42.4834 122.33C42.4834 123.928 41.1773 125.257 39.5799 125.257C37.96 125.257 36.6538 123.928 36.6538 122.33ZM24.7544 122.33C24.7544 120.71 26.0605 119.404 27.6805 119.404C29.3004 119.404 30.6066 120.71 30.6066 122.33C30.6066 123.928 29.3004 125.257 27.6805 125.257C26.0605 125.257 24.7544 123.928 24.7544 122.33ZM12.8789 122.33C12.8789 120.71 14.1851 119.404 15.781 119.404C17.4009 119.404 18.7071 120.71 18.7071 122.33C18.7071 123.928 17.4009 125.257 15.781 125.257C14.1851 125.257 12.8789 123.928 12.8789 122.33Z" fill="black"/>
<path d="M170.374 125.26C169.601 125.26 168.874 124.947 168.318 124.388C168.053 124.124 167.835 123.81 167.691 123.445C167.545 123.082 167.472 122.72 167.472 122.333C167.472 121.558 167.787 120.809 168.318 120.278C169.407 119.162 171.366 119.189 172.455 120.278C172.987 120.809 173.301 121.558 173.301 122.333C173.301 123.108 172.987 123.833 172.455 124.388C171.898 124.947 171.147 125.26 170.374 125.26Z" fill="black"/>
<path d="M3.90569 135.463C3.0844 135.463 2.30976 135.149 1.72878 134.568C1.1478 134.012 0.833984 133.238 0.833984 132.417C0.833984 131.618 1.17325 130.821 1.72878 130.238C1.87438 130.118 2.01856 129.974 2.18819 129.876C2.35641 129.756 2.55007 129.659 2.72111 129.587C2.91336 129.513 3.10702 129.44 3.30068 129.417C3.688 129.319 4.09934 129.319 4.48666 129.417C4.68032 129.441 4.87258 129.513 5.06624 129.587C5.2599 129.66 5.42811 129.756 5.59915 129.876C5.76737 129.974 5.91297 130.117 6.05857 130.238C6.63813 130.819 6.95336 131.618 6.95336 132.417C6.95336 132.828 6.87985 133.215 6.73425 133.578C6.56603 133.963 6.34834 134.277 6.05715 134.568C5.76595 134.859 5.42811 135.075 5.06482 135.246C4.70436 135.392 4.293 135.463 3.90569 135.463Z" fill="black"/>
<path d="M155.425 132.416C155.425 130.723 156.805 129.346 158.497 129.346C160.165 129.346 161.545 130.723 161.545 132.416C161.545 134.109 160.165 135.462 158.497 135.462C156.805 135.462 155.425 134.109 155.425 132.416ZM143.527 132.416C143.527 130.723 144.907 129.346 146.599 129.346C148.292 129.346 149.647 130.723 149.647 132.416C149.647 134.109 148.292 135.462 146.599 135.462C144.907 135.462 143.527 134.109 143.527 132.416ZM131.653 132.416C131.653 130.723 133.006 129.346 134.7 129.346C136.393 129.346 137.771 130.723 137.771 132.416C137.771 134.109 136.393 135.462 134.7 135.462C133.006 135.462 131.653 134.109 131.653 132.416ZM119.752 132.416C119.752 130.723 121.132 129.346 122.824 129.346C124.492 129.346 125.872 130.723 125.872 132.416C125.872 134.109 124.492 135.462 122.824 135.462C121.132 135.462 119.752 134.109 119.752 132.416ZM107.854 132.416C107.854 130.723 109.234 129.346 110.926 129.346C112.619 129.346 113.974 130.723 113.974 132.416C113.974 134.109 112.619 135.462 110.926 135.462C109.234 135.462 107.854 134.109 107.854 132.416ZM95.9803 132.416C95.9803 130.723 97.3331 129.346 99.0266 129.346C100.72 129.346 102.098 130.723 102.098 132.416C102.098 134.109 100.72 135.462 99.0266 135.462C97.3331 135.462 95.9803 134.109 95.9803 132.416ZM84.0794 132.416C84.0794 130.723 85.4591 129.346 87.1511 129.346C88.8191 129.346 90.1988 130.723 90.1988 132.416C90.1988 134.109 88.8191 135.462 87.1511 135.462C85.4591 135.462 84.0794 134.109 84.0794 132.416ZM72.1813 132.416C72.1813 130.723 73.561 129.346 75.253 129.346C76.9465 129.346 78.3007 130.723 78.3007 132.416C78.3007 134.109 76.9465 135.462 75.253 135.462C73.561 135.462 72.1813 134.109 72.1813 132.416ZM60.3073 132.416C60.3073 130.723 61.6601 129.346 63.3536 129.346C65.047 129.346 66.4253 130.723 66.4253 132.416C66.4253 134.109 65.047 135.462 63.3536 135.462C61.6601 135.462 60.3073 134.109 60.3073 132.416ZM48.4064 132.416C48.4064 130.723 49.786 129.346 51.4541 129.346C53.1461 129.346 54.5258 130.723 54.5258 132.416C54.5258 134.109 53.1461 135.462 51.4541 135.462C49.786 135.462 48.4064 134.109 48.4064 132.416ZM36.5083 132.416C36.5083 130.723 37.888 129.346 39.58 129.346C41.2735 129.346 42.6277 130.723 42.6277 132.416C42.6277 134.109 41.2735 135.462 39.58 135.462C37.888 135.462 36.5083 134.109 36.5083 132.416ZM24.6343 132.416C24.6343 130.723 25.9871 129.346 27.6806 129.346C29.374 129.346 30.7523 130.723 30.7523 132.416C30.7523 134.109 29.374 135.462 27.6806 135.462C25.9871 135.462 24.6343 134.109 24.6343 132.416ZM12.7334 132.416C12.7334 130.723 14.1131 129.346 15.7811 129.346C17.4731 129.346 18.8528 130.723 18.8528 132.416C18.8528 134.109 17.4731 135.462 15.7811 135.462C14.1131 135.462 12.7334 134.109 12.7334 132.416Z" fill="black"/>
<path d="M170.372 135.463C169.551 135.463 168.801 135.149 168.22 134.568C167.64 134.013 167.326 133.238 167.326 132.417C167.326 132.223 167.35 132.005 167.373 131.812C167.421 131.618 167.469 131.424 167.566 131.231C167.64 131.062 167.736 130.893 167.834 130.723C167.954 130.555 168.074 130.385 168.22 130.238C168.921 129.537 169.985 129.199 170.977 129.417C171.171 129.441 171.365 129.513 171.558 129.587C171.728 129.66 171.922 129.756 172.09 129.876C172.236 129.974 172.404 130.117 172.549 130.238C173.105 130.819 173.444 131.618 173.444 132.417C173.444 132.828 173.347 133.215 173.202 133.579C173.057 133.963 172.839 134.277 172.549 134.568C172.258 134.859 171.922 135.076 171.558 135.247C171.171 135.392 170.784 135.463 170.372 135.463Z" fill="black"/>
<path d="M3.90533 145.694C3.47137 145.694 3.05861 145.621 2.6727 145.451C2.28538 145.307 1.94612 145.067 1.63231 144.75C1.0273 144.145 0.689453 143.348 0.689453 142.501C0.689453 142.283 0.713481 142.09 0.762956 141.874C0.811018 141.68 0.860492 141.462 0.931171 141.269C1.02871 141.075 1.12483 140.905 1.24499 140.712C1.34252 140.543 1.48671 140.374 1.63231 140.23C2.3815 139.479 3.49398 139.141 4.53438 139.357C4.72662 139.404 4.92028 139.455 5.11394 139.551C5.3076 139.625 5.50126 139.719 5.67089 139.841C5.84052 139.961 6.01015 140.081 6.15433 140.228C6.29993 140.372 6.44412 140.542 6.56568 140.71C6.68584 140.904 6.78338 141.073 6.85688 141.267C6.92898 141.461 7.00248 141.678 7.0251 141.872C7.07316 142.09 7.09861 142.283 7.09861 142.5C7.09861 143.345 6.75935 144.144 6.15575 144.749C5.55074 145.354 4.75207 145.694 3.90533 145.694Z" fill="black"/>
<path d="M155.28 142.499C155.28 140.734 156.708 139.281 158.497 139.281C160.263 139.281 161.69 140.733 161.69 142.499C161.69 144.266 160.263 145.692 158.497 145.692C156.708 145.692 155.28 144.266 155.28 142.499ZM143.406 142.499C143.406 140.734 144.832 139.281 146.598 139.281C148.363 139.281 149.791 140.733 149.791 142.499C149.791 144.266 148.363 145.692 146.598 145.692C144.832 145.692 143.406 144.266 143.406 142.499ZM131.506 142.499C131.506 140.734 132.933 139.281 134.698 139.281C136.464 139.281 137.916 140.733 137.916 142.499C137.916 144.266 136.464 145.692 134.698 145.692C132.933 145.692 131.506 144.266 131.506 142.499ZM119.607 142.499C119.607 140.734 121.035 139.281 122.8 139.281C124.59 139.281 126.017 140.733 126.017 142.499C126.017 144.266 124.59 145.692 122.8 145.692C121.035 145.692 119.607 144.266 119.607 142.499ZM107.707 142.499C107.707 140.734 109.159 139.281 110.925 139.281C112.69 139.281 114.118 140.733 114.118 142.499C114.118 144.266 112.69 145.692 110.925 145.692C109.159 145.692 107.707 144.266 107.707 142.499ZM95.8334 142.499C95.8334 140.734 97.2597 139.281 99.0252 139.281C100.791 139.281 102.217 140.733 102.217 142.499C102.217 144.266 100.791 145.692 99.0252 145.692C97.2597 145.692 95.8334 144.266 95.8334 142.499ZM83.9339 142.499C83.9339 140.734 85.3616 139.281 87.1512 139.281C88.9168 139.281 90.3445 140.733 90.3445 142.499C90.3445 144.266 88.9168 145.692 87.1512 145.692C85.3616 145.692 83.9339 144.266 83.9339 142.499ZM72.0344 142.499C72.0344 140.734 73.4862 139.281 75.2517 139.281C77.0173 139.281 78.445 140.733 78.445 142.499C78.445 144.266 77.0173 145.692 75.2517 145.692C73.4862 145.692 72.0344 144.266 72.0344 142.499ZM60.1604 142.499C60.1604 140.734 61.5867 139.281 63.3522 139.281C65.1178 139.281 66.5695 140.733 66.5695 142.499C66.5695 144.266 65.1178 145.692 63.3522 145.692C61.5867 145.692 60.1604 144.266 60.1604 142.499ZM48.2609 142.499C48.2609 140.734 49.6886 139.281 51.4542 139.281C53.2438 139.281 54.6715 140.733 54.6715 142.499C54.6715 144.266 53.2438 145.692 51.4542 145.692C49.6886 145.692 48.2609 144.266 48.2609 142.499ZM36.3614 142.499C36.3614 140.734 37.8132 139.281 39.5787 139.281C41.3443 139.281 42.772 140.733 42.772 142.499C42.772 144.266 41.3443 145.692 39.5787 145.692C37.8132 145.692 36.3614 144.266 36.3614 142.499ZM24.4874 142.499C24.4874 140.734 25.9137 139.281 27.6792 139.281C29.4448 139.281 30.8711 140.733 30.8711 142.499C30.8711 144.266 29.4448 145.692 27.6792 145.692C25.9137 145.692 24.4874 144.266 24.4874 142.499ZM12.5879 142.499C12.5879 140.734 14.0156 139.281 15.8052 139.281C17.5467 139.281 18.9985 140.733 18.9985 142.499C18.9985 144.266 17.5467 145.692 15.8052 145.692C14.0156 145.692 12.5879 144.266 12.5879 142.499Z" fill="black"/>
<path d="M170.373 145.694C169.961 145.694 169.551 145.621 169.164 145.451C168.777 145.307 168.413 145.067 168.124 144.75C167.518 144.145 167.181 143.348 167.181 142.501C167.181 142.283 167.205 142.09 167.229 141.874C167.277 141.68 167.349 141.462 167.421 141.269C167.494 141.075 167.591 140.905 167.712 140.712C167.834 140.543 167.978 140.374 168.124 140.23C168.85 139.479 169.963 139.141 171.002 139.357C171.221 139.404 171.414 139.455 171.607 139.551C171.8 139.625 171.994 139.719 172.164 139.841C172.332 139.961 172.501 140.081 172.647 140.228C172.793 140.372 172.938 140.542 173.034 140.71C173.154 140.904 173.252 141.073 173.325 141.267C173.422 141.461 173.47 141.678 173.518 141.872C173.566 142.09 173.591 142.283 173.591 142.5C173.591 143.345 173.252 144.144 172.648 144.749C172.042 145.354 171.243 145.694 170.373 145.694Z" fill="black"/>
<path d="M3.90738 155.925C3.68969 155.925 3.47341 155.901 3.25431 155.854C3.03662 155.829 2.82034 155.757 2.62668 155.684C2.43302 155.587 2.21533 155.491 2.0457 155.371C1.85204 155.251 1.68241 155.104 1.53823 154.934C0.910601 154.329 0.545898 153.459 0.545898 152.589C0.545898 151.694 0.909187 150.849 1.53823 150.22C2.77228 148.984 5.02128 148.984 6.25533 150.22C6.88296 150.847 7.24624 151.694 7.24624 152.589C7.24624 153.459 6.88296 154.329 6.25533 154.934C5.6489 155.564 4.77673 155.925 3.90738 155.925Z" fill="black"/>
<path d="M155.137 152.587C155.137 150.726 156.636 149.25 158.499 149.25C160.338 149.25 161.838 150.726 161.838 152.587C161.838 154.425 160.338 155.925 158.499 155.925C156.636 155.925 155.137 154.425 155.137 152.587ZM143.262 152.587C143.262 150.726 144.762 149.25 146.599 149.25C148.438 149.25 149.937 150.726 149.937 152.587C149.937 154.425 148.438 155.925 146.599 155.925C144.762 155.925 143.262 154.425 143.262 152.587ZM131.362 152.587C131.362 150.726 132.862 149.25 134.7 149.25C136.562 149.25 138.061 150.726 138.061 152.587C138.061 154.425 136.562 155.925 134.7 155.925C132.862 155.925 131.362 154.425 131.362 152.587ZM119.464 152.587C119.464 150.726 120.963 149.25 122.826 149.25C124.665 149.25 126.165 150.726 126.165 152.587C126.165 154.425 124.665 155.925 122.826 155.925C120.963 155.925 119.464 154.425 119.464 152.587ZM107.589 152.587C107.589 150.726 109.089 149.25 110.926 149.25C112.765 149.25 114.264 150.726 114.264 152.587C114.264 154.425 112.765 155.925 110.926 155.925C109.089 155.925 107.589 154.425 107.589 152.587ZM95.6894 152.587C95.6894 150.726 97.1892 149.25 99.0268 149.25C100.864 149.25 102.388 150.726 102.388 152.587C102.388 154.425 100.864 155.925 99.0268 155.925C97.1892 155.925 95.6894 154.425 95.6894 152.587ZM83.7913 152.587C83.7913 150.726 85.2897 149.25 87.1528 149.25C88.9919 149.25 90.4917 150.726 90.4917 152.587C90.4917 154.425 88.9919 155.925 87.1528 155.925C85.2897 155.925 83.7913 154.425 83.7913 152.587ZM71.8904 152.587C71.8904 150.726 73.4157 149.25 75.2519 149.25C77.091 149.25 78.5894 150.726 78.5894 152.587C78.5894 154.425 77.091 155.925 75.2519 155.925C73.4157 155.925 71.8904 154.425 71.8904 152.587ZM60.0164 152.587C60.0164 150.726 61.5162 149.25 63.3538 149.25C65.1915 149.25 66.6913 150.726 66.6913 152.587C66.6913 154.425 65.1915 155.925 63.3538 155.925C61.5162 155.925 60.0164 154.425 60.0164 152.587ZM48.1183 152.587C48.1183 150.726 49.6167 149.25 51.4558 149.25C53.3175 149.25 54.8173 150.726 54.8173 152.587C54.8173 154.425 53.3175 155.925 51.4558 155.925C49.6167 155.925 48.1183 154.425 48.1183 152.587ZM36.2174 152.587C36.2174 150.726 37.7172 149.25 39.5789 149.25C41.418 149.25 42.9164 150.726 42.9164 152.587C42.9164 154.425 41.418 155.925 39.5789 155.925C37.7172 155.925 36.2174 154.425 36.2174 152.587ZM24.3434 152.587C24.3434 150.726 25.8432 149.25 27.6808 149.25C29.5185 149.25 31.0183 150.726 31.0183 152.587C31.0183 154.425 29.5185 155.925 27.6808 155.925C25.8432 155.925 24.3434 154.425 24.3434 152.587ZM12.4453 152.587C12.4453 150.726 13.9437 149.25 15.7828 149.25C17.6444 149.25 19.1442 150.726 19.1442 152.587C19.1442 154.425 17.6444 155.925 15.7828 155.925C13.9437 155.925 12.4453 154.425 12.4453 152.587Z" fill="black"/>
<path d="M170.374 155.925C170.156 155.925 169.938 155.901 169.721 155.854C169.503 155.829 169.309 155.757 169.093 155.684C168.899 155.587 168.706 155.491 168.536 155.371C168.342 155.251 168.173 155.104 168.027 154.934C167.859 154.79 167.713 154.62 167.593 154.452C167.472 154.258 167.374 154.065 167.302 153.871C167.206 153.653 167.134 153.459 167.108 153.243C167.06 153.024 167.036 152.806 167.036 152.589C167.036 151.694 167.399 150.849 168.027 150.22C169.261 148.984 171.486 148.984 172.744 150.22C173.373 150.847 173.711 151.694 173.711 152.589C173.711 153.459 173.373 154.329 172.744 154.934C172.115 155.564 171.268 155.925 170.374 155.925Z" fill="black"/>
<path d="M3.90688 166.155C3.66516 166.155 3.44747 166.13 3.22978 166.081C2.98806 166.034 2.77037 165.961 2.57671 165.887C2.3576 165.79 2.16536 165.694 1.9717 165.574C1.77804 165.429 1.58438 165.282 1.43878 165.14C0.785707 164.485 0.423828 163.59 0.423828 162.671C0.423828 161.753 0.78712 160.858 1.43878 160.206C2.72089 158.9 5.06601 158.9 6.37216 160.206C7.0012 160.858 7.38852 161.753 7.38852 162.671C7.38852 163.59 7.00261 164.485 6.37216 165.14C5.7205 165.791 4.8257 166.155 3.90688 166.155Z" fill="black"/>
<path d="M154.991 162.673C154.991 160.739 156.563 159.191 158.496 159.191C160.408 159.191 161.98 160.738 161.98 162.673C161.98 164.584 160.408 166.156 158.496 166.156C156.563 166.156 154.991 164.583 154.991 162.673ZM143.115 162.673C143.115 160.739 144.663 159.191 146.598 159.191C148.51 159.191 150.081 160.738 150.081 162.673C150.081 164.584 148.51 166.156 146.598 166.156C144.663 166.156 143.115 164.583 143.115 162.673ZM131.217 162.673C131.217 160.739 132.789 159.191 134.7 159.191C136.634 159.191 138.183 160.738 138.183 162.673C138.183 164.584 136.636 166.156 134.7 166.156C132.788 166.156 131.217 164.583 131.217 162.673ZM119.318 162.673C119.318 160.739 120.89 159.191 122.824 159.191C124.735 159.191 126.307 160.738 126.307 162.673C126.307 164.584 124.735 166.156 122.824 166.156C120.89 166.156 119.318 164.583 119.318 162.673ZM107.442 162.673C107.442 160.739 108.99 159.191 110.925 159.191C112.837 159.191 114.408 160.738 114.408 162.673C114.408 164.584 112.837 166.156 110.925 166.156C108.99 166.156 107.442 164.583 107.442 162.673ZM95.5443 162.673C95.5443 160.739 97.1162 159.191 99.0274 159.191C100.961 159.191 102.51 160.738 102.51 162.673C102.51 164.584 100.963 166.156 99.0274 166.156C97.1162 166.156 95.5443 164.583 95.5443 162.673ZM83.6448 162.673C83.6448 160.739 85.2167 159.191 87.1505 159.191C89.0617 159.191 90.6336 160.738 90.6336 162.673C90.6336 164.584 89.0617 166.156 87.1505 166.156C85.2167 166.156 83.6448 164.583 83.6448 162.673ZM71.7694 162.673C71.7694 160.739 73.3172 159.191 75.2524 159.191C77.1636 159.191 78.7355 160.738 78.7355 162.673C78.7355 164.584 77.1636 166.156 75.2524 166.156C73.3172 166.156 71.7694 164.583 71.7694 162.673ZM59.8713 162.673C59.8713 160.739 61.4192 159.191 63.3544 159.191C65.2881 159.191 66.8374 160.738 66.8374 162.673C66.8374 164.584 65.2896 166.156 63.3544 166.156C61.4192 166.156 59.8713 164.583 59.8713 162.673ZM47.9718 162.673C47.9718 160.739 49.5437 159.191 51.4775 159.191C53.3887 159.191 54.9605 160.738 54.9605 162.673C54.9605 164.584 53.3887 166.156 51.4775 166.156C49.5437 166.156 47.9718 164.583 47.9718 162.673ZM36.0964 162.673C36.0964 160.739 37.6442 159.191 39.5794 159.191C41.4906 159.191 43.0625 160.738 43.0625 162.673C43.0625 164.584 41.4906 166.156 39.5794 166.156C37.6442 166.156 36.0964 164.583 36.0964 162.673ZM24.1983 162.673C24.1983 160.739 25.7462 159.191 27.6814 159.191C29.6151 159.191 31.1644 160.738 31.1644 162.673C31.1644 164.584 29.6165 166.156 27.6814 166.156C25.7462 166.156 24.1983 164.583 24.1983 162.673ZM12.2988 162.673C12.2988 160.739 13.8707 159.191 15.7819 159.191C17.7157 159.191 19.2875 160.738 19.2875 162.673C19.2875 164.584 17.7157 166.156 15.7819 166.156C13.8707 166.156 12.2988 164.583 12.2988 162.673Z" fill="black"/>
<path d="M170.371 166.155C169.452 166.155 168.558 165.791 167.905 165.14C167.277 164.485 166.89 163.59 166.89 162.671C166.89 161.753 167.277 160.858 167.905 160.206C169.211 158.9 171.557 158.9 172.838 160.206C173.491 160.858 173.854 161.753 173.854 162.671C173.854 163.59 173.491 164.485 172.838 165.14C172.185 165.791 171.29 166.155 170.371 166.155Z" fill="black"/>
<path d="M3.90697 176.383C2.94008 176.383 2.02126 175.995 1.34274 175.32C0.641607 174.641 0.27832 173.724 0.27832 172.755C0.27832 171.79 0.665638 170.871 1.34274 170.192C2.67433 168.837 5.11557 168.837 6.46978 170.192C7.14688 170.871 7.5342 171.788 7.5342 172.755C7.5342 173.724 7.14688 174.642 6.46978 175.32C5.76865 175.997 4.87385 176.383 3.90697 176.383Z" fill="black"/>
<path d="M154.846 172.754C154.846 170.747 156.49 169.127 158.498 169.127C160.482 169.127 162.125 170.747 162.125 172.754C162.125 174.761 160.481 176.381 158.498 176.381C156.49 176.381 154.846 174.761 154.846 172.754ZM142.971 172.754C142.971 170.747 144.591 169.127 146.598 169.127C148.605 169.127 150.225 170.747 150.225 172.754C150.225 174.761 148.605 176.381 146.598 176.381C144.592 176.381 142.971 174.761 142.971 172.754ZM131.073 172.754C131.073 170.747 132.693 169.127 134.7 169.127C136.707 169.127 138.327 170.747 138.327 172.754C138.327 174.761 136.707 176.381 134.7 176.381C132.693 176.381 131.073 174.761 131.073 172.754ZM119.197 172.754C119.197 170.747 120.817 169.127 122.802 169.127C124.809 169.127 126.453 170.747 126.453 172.754C126.453 174.761 124.809 176.381 122.802 176.381C120.817 176.381 119.197 174.761 119.197 172.754ZM107.298 172.754C107.298 170.747 108.918 169.127 110.925 169.127C112.932 169.127 114.552 170.747 114.552 172.754C114.552 174.761 112.932 176.381 110.925 176.381C108.919 176.381 107.298 174.761 107.298 172.754ZM95.3998 172.754C95.3998 170.747 97.0197 169.127 99.027 169.127C101.034 169.127 102.654 170.747 102.654 172.754C102.654 174.761 101.034 176.381 99.027 176.381C97.0197 176.381 95.3998 174.761 95.3998 172.754ZM83.5003 172.754C83.5003 170.747 85.1443 169.127 87.1516 169.127C89.1362 169.127 90.7562 170.747 90.7562 172.754C90.7562 174.761 89.1362 176.381 87.1516 176.381C85.1443 176.381 83.5003 174.761 83.5003 172.754ZM71.6249 172.754C71.6249 170.747 73.2448 169.127 75.2521 169.127C77.2594 169.127 78.8793 170.747 78.8793 172.754C78.8793 174.761 77.2594 176.381 75.2521 176.381C73.2462 176.381 71.6249 174.761 71.6249 172.754ZM59.7268 172.754C59.7268 170.747 61.3467 169.127 63.354 169.127C65.3613 169.127 66.9813 170.747 66.9813 172.754C66.9813 174.761 65.3613 176.381 63.354 176.381C61.3467 176.381 59.7268 174.761 59.7268 172.754ZM47.8273 172.754C47.8273 170.747 49.4713 169.127 51.4545 169.127C53.4618 169.127 55.1058 170.747 55.1058 172.754C55.1058 174.761 53.4618 176.381 51.4545 176.381C49.4713 176.381 47.8273 174.761 47.8273 172.754ZM35.9519 172.754C35.9519 170.747 37.5718 169.127 39.5791 169.127C41.5623 169.127 43.2063 170.747 43.2063 172.754C43.2063 174.761 41.5623 176.381 39.5791 176.381C37.5732 176.381 35.9519 174.761 35.9519 172.754ZM24.0538 172.754C24.0538 170.747 25.6737 169.127 27.681 169.127C29.6883 169.127 31.3083 170.747 31.3083 172.754C31.3083 174.761 29.6883 176.381 27.681 176.381C25.6737 176.381 24.0538 174.761 24.0538 172.754ZM12.1543 172.754C12.1543 170.747 13.7983 169.127 15.7815 169.127C17.7888 169.127 19.4088 170.747 19.4088 172.754C19.4088 174.761 17.7888 176.381 15.7815 176.381C13.7983 176.381 12.1543 174.761 12.1543 172.754Z" fill="black"/>
<path d="M170.372 176.386C169.888 176.386 169.429 176.29 168.994 176.096C168.558 175.928 168.147 175.662 167.808 175.324C167.13 174.646 166.743 173.728 166.743 172.76C166.743 171.795 167.13 170.876 167.808 170.197C167.976 170.028 168.171 169.883 168.363 169.736C168.557 169.616 168.774 169.496 168.992 169.399C169.21 169.325 169.426 169.254 169.669 169.205C170.129 169.109 170.612 169.109 171.096 169.205C171.315 169.254 171.556 169.325 171.773 169.399C171.99 169.495 172.184 169.616 172.402 169.736C172.595 169.883 172.765 170.028 172.935 170.197C173.612 170.876 173.999 171.793 173.999 172.76C173.999 173.243 173.927 173.704 173.733 174.14C173.54 174.574 173.274 174.985 172.935 175.326C172.258 176 171.339 176.386 170.372 176.386Z" fill="black"/>
</svg>
