<svg width="554" height="528" viewBox="0 0 554 528" fill="none" xmlns="http://www.w3.org/2000/svg">
<circle cx="278" cy="157" r="156.5" stroke="white"/>
<circle cx="157" cy="371" r="156.5" stroke="white"/>
<circle cx="397" cy="371" r="156.5" stroke="white"/>
<path d="M152.427 372.5L278 155L403.574 372.5H152.427Z" fill="black" stroke="#D9D9D9"/>
<path d="M282.192 259.312C283.728 260.464 285.024 261.617 286.08 262.768L284.376 264.497C283.44 263.393 282.144 262.193 280.488 260.945L282.192 259.312ZM279 266.128H284.544V276.089C285.24 275.465 285.984 274.793 286.776 274.049L287.472 276.688C285.888 278.128 284.208 279.4 282.432 280.552L281.472 278.296C281.88 277.936 282.096 277.48 282.096 276.952V268.528H279V266.128ZM287.592 269.008H299.304V271.288C298.632 273.352 297.528 275.152 295.992 276.664C297.48 277.624 299.28 278.465 301.416 279.208L300.072 281.368C297.72 280.408 295.728 279.353 294.144 278.177C292.272 279.497 289.992 280.552 287.256 281.344L285.864 279.233C288.336 278.513 290.424 277.601 292.152 276.497C290.616 274.96 289.536 273.28 288.96 271.408H287.592V269.008ZM291.312 271.408C291.84 272.776 292.704 274.024 293.952 275.128C295.176 274.024 296.112 272.8 296.784 271.408H291.312ZM289.224 259.721H297.864V264.688C297.864 265.217 298.152 265.504 298.752 265.504H300.816V267.785H298.08C296.28 267.785 295.392 266.944 295.392 265.265V262.073H291.696V262.721C291.696 265.216 290.4 267.16 287.856 268.504L286.176 266.585C288.192 265.745 289.224 264.544 289.224 262.984V259.721Z" fill="white"/>
<path d="M263.496 276.04V278.44C261.12 279.304 258.432 280.024 255.432 280.552L255.096 278.08C258.288 277.576 261.096 276.904 263.496 276.04ZM259.272 259L261.648 259.936C260.472 262.72 259.272 265 258.048 266.776C258.936 266.68 259.824 266.56 260.712 266.416C261.192 265.504 261.72 264.544 262.272 263.512L264.528 264.376C262.416 268.24 260.64 271.096 259.176 272.968C260.712 272.584 262.248 272.08 263.832 271.48V273.76C261.072 274.816 258.456 275.488 256.008 275.824L255.36 273.544C255.792 273.352 256.176 273.088 256.488 272.8C257.256 272.032 258.24 270.664 259.392 268.744L255.624 269.248L255 266.944C255.384 266.752 255.744 266.44 256.08 265.984C257.304 263.872 258.36 261.544 259.272 259ZM269.304 262.816H264.624V260.392H276.456V262.816H271.824V277.816H277.08V280.264H263.952V277.816H269.304V262.816Z" fill="#FF0000"/>
<path d="M233.919 303.995V309.267H240.819V312.611H233.919V318.184H241.7V321.619H229.809V300.561H241.7V303.995H233.919Z" fill="white"/>
<path d="M221.57 321.618L217.048 313.424H215.111V321.618H211V300.59H218.693C220.278 300.59 221.629 300.881 222.744 301.464C223.86 302.026 224.692 302.799 225.24 303.783C225.808 304.747 226.091 305.832 226.091 307.037C226.091 308.423 225.7 309.678 224.917 310.803C224.134 311.907 222.969 312.67 221.423 313.092L226.326 321.618H221.57ZM215.111 310.26H218.546C219.661 310.26 220.493 309.989 221.041 309.447C221.589 308.885 221.863 308.111 221.863 307.127C221.863 306.163 221.589 305.42 221.041 304.898C220.493 304.356 219.661 304.084 218.546 304.084H215.111V310.26Z" fill="white"/>
<path d="M342.808 304.688C344.746 304.688 346.311 305.32 347.505 306.585C348.699 307.831 349.296 309.578 349.296 311.827V321.618H345.186V312.4C345.186 311.074 344.863 310.06 344.217 309.357C343.571 308.634 342.69 308.273 341.575 308.273C340.439 308.273 339.539 308.634 338.873 309.357C338.227 310.06 337.904 311.074 337.904 312.4V321.618H333.794V304.929H337.904V307.007C338.453 306.284 339.147 305.722 339.989 305.32C340.85 304.898 341.79 304.688 342.808 304.688Z" fill="white"/>
<path d="M320.267 304.658C321.481 304.658 322.548 304.909 323.467 305.411C324.387 305.893 325.112 306.526 325.64 307.309V304.929H329.78V321.74C329.78 323.286 329.477 324.662 328.87 325.867C328.263 327.092 327.353 328.056 326.139 328.759C324.926 329.482 323.458 329.844 321.735 329.844C319.425 329.844 317.527 329.291 316.039 328.187C314.571 327.082 313.739 325.576 313.544 323.668H317.625C317.84 324.431 318.3 325.034 319.005 325.475C319.729 325.937 320.6 326.168 321.618 326.168C322.812 326.168 323.781 325.797 324.524 325.054C325.268 324.331 325.64 323.226 325.64 321.74V319.149C325.112 319.932 324.378 320.585 323.438 321.107C322.518 321.629 321.461 321.89 320.267 321.89C318.897 321.89 317.644 321.529 316.509 320.806C315.374 320.083 314.473 319.069 313.808 317.763C313.162 316.438 312.839 314.921 312.839 313.214C312.839 311.527 313.162 310.031 313.808 308.725C314.473 307.42 315.364 306.416 316.48 305.713C317.615 305.01 318.877 304.658 320.267 304.658ZM325.64 313.274C325.64 312.25 325.444 311.376 325.053 310.653C324.661 309.91 324.133 309.348 323.467 308.966C322.802 308.565 322.088 308.364 321.324 308.364C320.561 308.364 319.856 308.555 319.21 308.936C318.564 309.318 318.036 309.88 317.625 310.623C317.233 311.346 317.037 312.21 317.037 313.214C317.037 314.218 317.233 315.102 317.625 315.865C318.036 316.608 318.564 317.181 319.21 317.582C319.876 317.984 320.58 318.185 321.324 318.185C322.088 318.185 322.802 317.994 323.467 317.612C324.133 317.211 324.661 316.648 325.053 315.925C325.444 315.182 325.64 314.299 325.64 313.274Z" fill="white"/>
<path d="M307.808 302.941C307.084 302.941 306.477 302.71 305.988 302.248C305.518 301.766 305.283 301.173 305.283 300.47C305.283 299.767 305.518 299.185 305.988 298.723C306.477 298.241 307.084 298 307.808 298C308.532 298 309.129 298.241 309.599 298.723C310.089 299.185 310.333 299.767 310.333 300.47C310.333 301.173 310.089 301.766 309.599 302.248C309.129 302.71 308.532 302.941 307.808 302.941ZM309.834 304.929V321.619H305.724V304.929H309.834Z" fill="white"/>
<path d="M295.949 321.89C294.618 321.89 293.424 321.649 292.367 321.167C291.31 320.665 290.468 319.992 289.842 319.149C289.235 318.305 288.902 317.371 288.844 316.347H292.984C293.062 316.99 293.365 317.522 293.894 317.944C294.442 318.366 295.117 318.577 295.92 318.577C296.703 318.577 297.309 318.416 297.74 318.095C298.19 317.773 298.415 317.361 298.415 316.859C298.415 316.317 298.141 315.915 297.593 315.654C297.065 315.373 296.213 315.072 295.039 314.751C293.825 314.449 292.827 314.138 292.044 313.817C291.281 313.495 290.615 313.003 290.048 312.34C289.499 311.678 289.225 310.784 289.225 309.659C289.225 308.735 289.48 307.892 289.989 307.129C290.517 306.365 291.261 305.763 292.22 305.321C293.199 304.879 294.344 304.658 295.655 304.658C297.593 304.658 299.14 305.16 300.294 306.165C301.449 307.149 302.085 308.484 302.203 310.171H298.269C298.21 309.509 297.936 308.986 297.446 308.605C296.977 308.203 296.341 308.002 295.538 308.002C294.794 308.002 294.217 308.143 293.806 308.424C293.414 308.705 293.219 309.097 293.219 309.599C293.219 310.161 293.493 310.593 294.041 310.894C294.589 311.176 295.44 311.467 296.595 311.768C297.769 312.069 298.738 312.381 299.502 312.702C300.265 313.023 300.921 313.525 301.469 314.208C302.037 314.871 302.33 315.755 302.35 316.859C302.35 317.823 302.085 318.687 301.557 319.45C301.048 320.213 300.304 320.816 299.326 321.258C298.366 321.68 297.241 321.89 295.949 321.89Z" fill="white"/>
<path d="M286.724 312.913C286.724 313.515 286.685 314.058 286.606 314.54H274.715C274.813 315.745 275.224 316.689 275.948 317.371C276.673 318.054 277.563 318.396 278.62 318.396C280.147 318.396 281.233 317.723 281.879 316.377H286.313C285.843 317.984 284.942 319.31 283.611 320.354C282.28 321.378 280.646 321.89 278.708 321.89C277.142 321.89 275.733 321.539 274.48 320.836C273.247 320.113 272.278 319.099 271.574 317.793C270.888 316.488 270.546 314.981 270.546 313.274C270.546 311.547 270.888 310.031 271.574 308.725C272.259 307.42 273.218 306.416 274.451 305.713C275.684 305.01 277.103 304.658 278.708 304.658C280.255 304.658 281.634 305 282.848 305.682C284.081 306.365 285.031 307.339 285.696 308.605C286.381 309.85 286.724 311.286 286.724 312.913ZM282.466 311.708C282.447 310.623 282.065 309.76 281.321 309.117C280.578 308.454 279.667 308.123 278.591 308.123C277.573 308.123 276.712 308.444 276.007 309.087C275.322 309.709 274.901 310.583 274.744 311.708H282.466Z" fill="white"/>
<path fill-rule="evenodd" clip-rule="evenodd" d="M245.333 299.801H257.805C263.606 299.801 268.308 304.626 268.308 310.577C268.308 316.529 263.606 321.354 257.805 321.354H245.333V299.801ZM248.943 303.505V317.65H257.805C261.612 317.65 264.697 314.483 264.697 310.577C264.697 306.672 261.612 303.505 257.805 303.505H248.943Z" fill="white"/>
<path fill-rule="evenodd" clip-rule="evenodd" d="M252.852 319.535V301.961H256.462V319.535H252.852Z" fill="white"/>
<rect x="230" y="130" width="96" height="56" rx="28" fill="#FF0000"/>
<rect x="109" y="345" width="96" height="56" rx="28" fill="#FF0000"/>
<rect x="349" y="345" width="96" height="56" rx="28" fill="#FF0000"/>
<path d="M247.952 152.392H260.816V150.184H263.184V152.392H276.048V154.504H263.184V157H273.68V163.016C273.68 164.659 272.827 165.48 271.12 165.48H268.944L268.368 163.432L270.448 163.528C271.067 163.528 271.376 163.197 271.376 162.536V159.016H263.184V161.832C266.64 165.053 271.173 167.603 276.784 169.48L275.568 171.56C270.768 169.725 266.64 167.229 263.184 164.072V172.296H260.816V164.2C257.488 167.4 253.659 169.907 249.328 171.72L247.984 169.704C253.04 167.827 257.317 165.192 260.816 161.8V159.016H253.136V165.416H250.864V157H260.816V154.504H247.952V152.392ZM252.08 147.528C251.312 148.744 250.48 149.864 249.584 150.888L247.6 149.64C249.627 147.485 251.109 145.085 252.048 142.44L254.256 142.92C253.915 143.859 253.563 144.712 253.2 145.48H261.456V147.528H256.048C256.859 148.701 257.52 149.779 258.032 150.76L255.952 151.528C255.333 150.184 254.565 148.851 253.648 147.528H252.08ZM265.456 147.528C264.901 148.616 264.325 149.587 263.728 150.44L261.776 149.16C263.227 147.133 264.272 144.904 264.912 142.472L267.152 142.952C266.853 143.955 266.587 144.797 266.352 145.48H275.952V147.528H270C270.789 148.701 271.419 149.779 271.888 150.76L269.872 151.528C269.317 150.291 268.571 148.957 267.632 147.528H265.456ZM298.576 145.64H300.816V165.608H298.576V145.64ZM299.664 171.912L299.152 169.704C300.859 169.811 302.299 169.864 303.472 169.864C304.475 169.864 304.976 169.363 304.976 168.36V142.952H307.28V168.936C307.28 170.92 306.277 171.912 304.272 171.912H299.664ZM295.376 149.992L295.728 152.232L286.448 153.672C286.64 155.464 286.875 157.021 287.152 158.344C287.429 159.688 287.749 160.915 288.112 162.024C290.011 159.869 291.611 157.341 292.912 154.44L294.928 155.496C293.328 159.101 291.355 162.12 289.008 164.552C289.285 165.235 289.627 165.949 290.032 166.696C291.205 168.573 292.283 169.533 293.264 169.576C293.819 169.491 294.416 167.816 295.056 164.552L297.008 165.8C296.56 167.443 296.08 168.829 295.568 169.96C294.928 171.325 294.203 172.008 293.392 172.008C291.92 172.008 290.448 170.984 288.976 168.936C288.357 168.04 287.824 167.101 287.376 166.12C285.264 167.891 283.013 169.277 280.624 170.28L279.248 168.2C281.979 167.133 284.368 165.651 286.416 163.752C285.989 162.621 285.595 161.331 285.232 159.88C284.827 158.344 284.485 156.392 284.208 154.024L280.048 154.664L279.696 152.424L283.984 151.752C283.728 149.128 283.6 146.184 283.6 142.92H285.968C285.968 146.035 286.064 148.861 286.256 151.4L295.376 149.992ZM290.192 142.728C291.344 144.136 292.485 145.747 293.616 147.56L291.664 148.52C290.576 146.685 289.456 145.064 288.304 143.656L290.192 142.728Z" fill="white"/>
<path d="M130.76 373.848C129.672 374.936 128.488 376.024 127.208 377.112L126.248 373.912C130.312 370.456 133.064 367.128 134.504 363.864H126.984V360.952H131.528C131.048 359.704 130.504 358.488 129.864 357.304L132.744 356.472C133.448 358.104 134.024 359.608 134.408 360.952H137.544V363.512C136.776 365.784 135.528 368.024 133.864 370.264C135.528 371.288 137.064 372.44 138.472 373.752L136.744 376.376C135.752 375.288 134.76 374.328 133.736 373.496V386.296H130.76V373.848ZM153.512 357.848V375.864H150.44V360.76H142.344V375.864H139.336V357.848H153.512ZM152.552 385.784H149.384C147.464 385.784 146.504 384.728 146.504 382.648V377.336C146.12 378.456 145.704 379.448 145.256 380.344C143.688 383.032 141.192 385.08 137.736 386.552L136.104 383.896C139.464 382.424 141.736 380.536 142.952 378.264C144.104 375.832 144.744 372.696 144.872 368.824V362.776H147.816V368.824C147.72 371.448 147.432 373.784 146.952 375.768H149.448V382.008C149.448 382.648 149.704 383 150.28 383H152.008C152.328 383 152.584 382.84 152.776 382.52C152.968 382.136 153.096 381.048 153.192 379.224L156.008 380.152C155.784 382.872 155.4 384.504 154.888 385.048C154.376 385.528 153.576 385.784 152.552 385.784ZM181.96 368.216V379.928H179.016V371.032H166.984V379.928H164.04V368.216H181.96ZM186.696 362.616V369.432H183.624V365.56H162.408V369.4H159.336V362.616H164.04C163.272 361.208 162.472 359.928 161.64 358.808L164.328 357.496C165.32 358.872 166.28 360.376 167.176 362.008L165.96 362.616H172.168C171.336 360.888 170.472 359.352 169.576 358.008L172.264 356.696C173.16 358.104 174.024 359.608 174.888 361.272L172.232 362.616H177.608C178.824 360.824 179.88 358.904 180.744 356.888L183.752 357.976C182.856 359.8 181.928 361.336 180.968 362.616H186.696ZM171.016 372.856H173.992V376.28C173.992 376.344 173.96 376.44 173.96 376.536H176.52V381.464C176.52 382.424 176.968 382.904 177.864 382.904H182.728C183.176 382.904 183.528 382.712 183.784 382.392C184.04 382.008 184.2 380.856 184.328 378.968L187.112 379.864C186.888 382.68 186.472 384.408 185.864 384.984C185.288 385.496 184.424 385.752 183.272 385.752H176.936C174.696 385.752 173.576 384.504 173.576 382.072V378.616C173.064 380.344 172.104 381.784 170.696 382.968C168.712 384.504 165.448 385.72 160.968 386.552L159.208 383.864C163.688 383.096 166.76 382.168 168.392 381.016C169.992 379.8 170.856 378.2 171.016 376.28V372.856Z" fill="white"/>
<path d="M368.424 358.456H393.64V361.4H388.52V369.08H395.272V372.024H388.52V385.88H385.48V372.024H376.904C376.584 375.224 375.976 377.88 375.016 380.024C373.8 382.712 371.752 384.792 368.904 386.232L367.272 383.672C369.832 382.168 371.592 380.248 372.52 377.944C373.128 376.28 373.544 374.296 373.8 372.024H366.76V369.08H374.024C374.024 368.824 374.056 368.568 374.056 368.376V361.4H368.424V358.456ZM377.128 361.4V368.376C377.128 368.632 377.096 368.856 377.096 369.08H385.48V361.4H377.128ZM400.296 367.032L402.824 357.688L405.864 358.2L404.2 364.12H408.936C409.544 361.752 410.024 359.256 410.408 356.632L413.512 357.016C413.128 359.544 412.648 361.912 412.104 364.12H426.76V367.032H411.336C411.016 368.088 410.664 369.08 410.344 370.04H423.144V372.6C422.312 375.224 420.744 377.592 418.376 379.704C420.808 381.048 423.752 382.296 427.176 383.448L425.608 386.328C421.736 384.92 418.472 383.352 415.848 381.688C413.32 383.448 410.216 385.048 406.536 386.488L404.936 383.608C408.136 382.456 410.888 381.176 413.16 379.8C411.08 378.136 409.512 376.344 408.488 374.456C406.184 379.192 403.272 382.968 399.784 385.784L398.216 382.968C402.632 379.064 405.928 373.752 408.104 367.032H400.296ZM410.696 372.792C411.752 374.68 413.416 376.44 415.688 378.04C417.704 376.408 419.176 374.648 420.072 372.792H410.696ZM418.888 356.664C421.096 358.328 422.952 360.024 424.456 361.72L422.28 363.896C421 362.232 419.208 360.504 416.84 358.68L418.888 356.664Z" fill="white"/>
</svg>
